<svg width="90" height="88" viewBox="0 0 90 88" fill="none" xmlns="http://www.w3.org/2000/svg">
<rect x="0.5" y="0.5" width="89" height="87" rx="7.5" stroke="#28166F"/>
<path fill-rule="evenodd" clip-rule="evenodd" d="M58.4022 60.168L61.3826 63.759C67.2205 58.9138 70.6666 51.7358 70.6666 44C70.6666 36.2748 67.23 29.1057 61.406 24.2604L58.4214 27.8478C63.1908 31.8158 66 37.676 66 44C66 50.3327 63.1829 56.2002 58.4022 60.168ZM31.5978 60.168L28.6174 63.759C22.7795 58.9138 19.3333 51.7358 19.3333 44C19.3333 36.2748 22.7699 29.1057 28.594 24.2604L31.5786 27.8478C26.8092 31.8158 24 37.676 24 44C24 50.3327 26.817 56.2002 31.5978 60.168ZM37.5835 53.0064L34.6146 56.6069C30.8767 53.5246 28.6667 48.9405 28.6667 44C28.6667 39.0757 30.8621 34.505 34.5791 31.4224L37.5581 35.0145C34.8991 37.2197 33.3333 40.4795 33.3333 44C33.3333 47.5321 34.9095 50.8014 37.5835 53.0064ZM55.3854 56.6069L52.4165 53.0064C55.0905 50.8014 56.6667 47.5321 56.6667 44C56.6667 40.4795 55.1009 37.2197 52.4419 35.0145L55.4209 31.4224C59.1379 34.505 61.3333 39.0757 61.3333 44C61.3333 48.9405 59.1233 53.5246 55.3854 56.6069Z" fill="#28166F"/>
<path fill-rule="evenodd" clip-rule="evenodd" d="M42.6667 49.348C40.6065 48.4478 39.1667 46.392 39.1667 44C39.1667 40.7784 41.7784 38.1667 45 38.1667C48.2217 38.1667 50.8334 40.7784 50.8334 44C50.8334 46.3921 49.3936 48.4479 47.3333 49.348V62.6667C47.3333 63.9554 46.2887 65.0001 45 65.0001C43.7113 65.0001 42.6667 63.9554 42.6667 62.6667V49.348Z" fill="#28166F"/>
</svg>
