<svg width="143" height="144" viewBox="0 0 143 144" fill="none" xmlns="http://www.w3.org/2000/svg">
<circle cx="71.4999" cy="71.9382" r="71.4382" fill="#23A26D" fill-opacity="0.12"/>
<path d="M71.4685 33.8691C50.5109 33.8691 33.433 50.9471 33.433 71.9047C33.433 92.8623 50.5109 109.94 71.4685 109.94C92.4262 109.94 109.504 92.8623 109.504 71.9047C109.504 50.9471 92.4262 33.8691 71.4685 33.8691ZM89.6496 63.1565L68.0834 84.7227C67.5509 85.2552 66.8282 85.5595 66.0675 85.5595C65.3068 85.5595 64.5841 85.2552 64.0516 84.7227L53.2875 73.9586C52.1845 72.8556 52.1845 71.0299 53.2875 69.9269C54.3906 68.8238 56.2163 68.8238 57.3193 69.9269L66.0675 78.6751L85.6178 59.1248C86.7208 58.0217 88.5465 58.0217 89.6496 59.1248C90.7526 60.2278 90.7526 62.0155 89.6496 63.1565Z" fill="#23A26D"/>
</svg>
