<svg width="325" height="315" viewBox="0 0 325 315" fill="none" xmlns="http://www.w3.org/2000/svg">
    <path d="M135.07 21.5166C118.514 23.7534 100.94 14.3886 84.7108 18.3382C68.455 22.2941 53.8606 33.3831 49.0908 49.289C45.7032 60.5864 47.4102 73.2167 44.3267 84.5156C40.8212 97.3608 31.5164 107.3 23.2997 117.465C13.5108 129.574 4.80785 142.917 1.40591 158.174C-1.97746 173.346 0.553469 190.695 11.0977 203.36C20.5888 214.761 35.5944 221.507 43.1879 233.861C50.2324 245.322 49.3685 259.09 53.2567 271.53C60.6745 295.268 87.6665 312.564 112.746 309.923C126.292 308.497 138.889 302.05 152.537 302.516C165.254 302.951 176.973 309.314 189.229 312.561C210.105 318.091 233.183 314.073 250.212 301.98C256.33 297.636 261.878 292.023 264.029 284.943C265.622 279.698 265.24 274.049 266.178 268.624C268.334 256.164 277.217 245.899 286.806 237.409C296.41 228.906 307.151 221.404 314.941 211.196C322.752 200.959 327.232 186.902 322.182 174.791C316.946 162.235 303.117 154.999 296.574 142.858C289.841 130.361 292.012 115.287 293.657 101.213C295.31 87.0608 295.731 71.0242 286.448 59.7325C273.962 44.5463 250.54 45.4744 234.621 33.6394C224.364 26.013 217.967 13.5976 207.221 6.47032C197.818 0.234035 186.045 -1.1403 175.378 0.843741C164.695 2.83207 145.882 20.0559 135.07 21.5166Z"
          fill="#F0FAFF"/>
    <path d="M230.656 94.4089C241.114 68.5248 228.608 39.0641 202.724 28.6067C176.84 18.1492 147.379 30.6549 136.922 56.539C126.464 82.4231 138.97 111.884 164.854 122.341C190.738 132.799 220.199 120.293 230.656 94.4089Z"
          stroke="#B5E4FF" stroke-width="1.42788" stroke-miterlimit="10" stroke-dasharray="4.29 4.29"/>
    <path d="M284.303 236.088C304.042 216.348 304.042 184.344 284.303 164.604C264.563 144.864 232.559 144.864 212.819 164.604C193.079 184.344 193.079 216.348 212.819 236.088C232.559 255.827 264.563 255.827 284.303 236.088Z"
          stroke="#B5E4FF" stroke-width="1.42788" stroke-miterlimit="10" stroke-dasharray="4.29 4.29"/>
    <path d="M136.247 174.559C141.347 142.315 119.341 112.041 87.0966 106.942C54.8521 101.843 24.5791 123.848 19.4798 156.093C14.3804 188.337 36.3859 218.61 68.6304 223.71C100.875 228.809 131.148 206.803 136.247 174.559Z"
          stroke="#B5E4FF" stroke-width="1.42788" stroke-miterlimit="10" stroke-dasharray="4.32 4.32"/>
    <path opacity="0.5"
          d="M242.211 238.612C270.128 238.612 292.758 215.981 292.758 188.065C292.758 160.148 270.128 137.518 242.211 137.518C214.295 137.518 191.664 160.148 191.664 188.065C191.664 215.981 214.295 238.612 242.211 238.612Z"
          fill="#D7F1FF"/>
    <path opacity="0.5"
          d="M230.46 111.211C250.2 91.4709 250.2 59.4666 230.46 39.7269C210.721 19.9872 178.716 19.9872 158.977 39.7269C139.237 59.4666 139.237 91.4709 158.977 111.211C178.716 130.95 210.721 130.95 230.46 111.211Z"
          fill="#D7F1FF"/>
    <path opacity="0.5"
          d="M79.1084 235.686C111.754 235.686 138.219 209.222 138.219 176.576C138.219 143.93 111.754 117.465 79.1084 117.465C46.4624 117.465 19.9976 143.93 19.9976 176.576C19.9976 209.222 46.4624 235.686 79.1084 235.686Z"
          fill="#D7F1FF"/>
    <path d="M85.3494 179.138H14.5635C13.0228 179.138 11.7627 177.877 11.7627 176.337V117.832C11.7627 116.291 13.0228 115.031 14.5635 115.031H85.3494C86.8901 115.031 88.1502 116.291 88.1502 117.832V176.337C88.1502 177.877 86.8894 179.138 85.3494 179.138Z"
          fill="#D7F1FF"/>
    <path d="M85.3494 115.029H14.5635C13.0228 115.029 11.7627 116.289 11.7627 117.83V124.132H88.1502V117.83C88.1502 116.29 86.8894 115.029 85.3494 115.029Z"
          fill="#90D3F9"/>
    <path d="M71.3324 119.58C71.3324 120.676 70.4442 121.564 69.3483 121.564C68.2524 121.564 67.3643 120.676 67.3643 119.58C67.3643 118.484 68.2524 117.596 69.3483 117.596C70.4442 117.596 71.3324 118.484 71.3324 119.58Z"
          fill="#C2E185"/>
    <path d="M78.1517 119.58C78.1517 120.676 77.2635 121.564 76.1676 121.564C75.0717 121.564 74.1836 120.676 74.1836 119.58C74.1836 118.484 75.0717 117.596 76.1676 117.596C77.2635 117.596 78.1517 118.484 78.1517 119.58Z"
          fill="#FFC557"/>
    <path d="M84.9713 119.58C84.9713 120.676 84.0832 121.564 82.9873 121.564C81.8914 121.564 81.0032 120.676 81.0032 119.58C81.0032 118.484 81.8914 117.596 82.9873 117.596C84.0832 117.596 84.9713 118.484 84.9713 119.58Z"
          fill="#FFC25A"/>
    <path d="M11.772 176.426C11.822 177.923 13.0543 179.134 14.5635 179.134H85.3494C86.858 179.134 88.091 177.923 88.141 176.426H11.772Z"
          fill="#90D3F9"/>
    <path d="M63.6672 163.547C71.2405 155.973 71.2405 143.695 63.6672 136.121C56.094 128.548 43.8152 128.548 36.2419 136.121C28.6687 143.695 28.6687 155.973 36.242 163.547C43.8152 171.12 56.094 171.12 63.6672 163.547Z"
          stroke="#65AFD8" stroke-width="1.42788" stroke-miterlimit="10"/>
    <path d="M49.956 169.227C57.1559 169.227 62.9926 160.545 62.9926 149.834C62.9926 139.124 57.1559 130.441 49.956 130.441C42.7561 130.441 36.9194 139.124 36.9194 149.834C36.9194 160.545 42.7561 169.227 49.956 169.227Z"
          stroke="#65AFD8" stroke-width="1.42788" stroke-miterlimit="10"/>
    <path d="M49.9562 169.227C52.3862 169.227 54.3562 160.545 54.3562 149.834C54.3562 139.124 52.3862 130.441 49.9562 130.441C47.5261 130.441 45.5562 139.124 45.5562 149.834C45.5562 160.545 47.5261 169.227 49.9562 169.227Z"
          stroke="#65AFD8" stroke-width="1.42788" stroke-miterlimit="10"/>
    <path d="M49.9563 162.87C60.6666 162.87 69.3491 157.033 69.3491 149.833C69.3491 142.634 60.6666 136.797 49.9563 136.797C39.2459 136.797 30.5635 142.634 30.5635 149.833C30.5635 157.033 39.2459 162.87 49.9563 162.87Z"
          stroke="#65AFD8" stroke-width="1.42788" stroke-miterlimit="10"/>
    <path d="M49.9563 154.234C39.2457 154.234 30.5635 152.264 30.5635 149.834C30.5635 147.403 39.2457 145.434 49.9563 145.434C60.6668 145.434 69.3491 147.403 69.3491 149.834C69.3491 152.264 60.6661 154.234 49.9563 154.234Z"
          stroke="#65AFD8" stroke-width="1.42788" stroke-miterlimit="10"/>
    <path d="M314.446 168.497H242.895C241.295 168.497 239.987 167.189 239.987 165.59V115.272C239.987 113.673 241.296 112.365 242.895 112.365H314.446C316.045 112.365 317.353 113.674 317.353 115.272V165.59C317.353 167.189 316.045 168.497 314.446 168.497Z"
          fill="#D7F1FF"/>
    <path d="M314.446 112.365H242.895C241.295 112.365 239.987 113.674 239.987 115.272V121.814H317.354V115.272C317.353 113.674 316.045 112.365 314.446 112.365Z"
          fill="#90D3F9"/>
    <path d="M299.896 117.091C299.896 118.228 298.974 119.151 297.837 119.151C296.7 119.151 295.777 118.228 295.777 117.091C295.777 115.954 296.699 115.031 297.837 115.031C298.975 115.031 299.896 115.953 299.896 117.091Z"
          fill="#C2E185"/>
    <path d="M306.975 117.091C306.975 118.228 306.053 119.151 304.915 119.151C303.778 119.151 302.856 118.228 302.856 117.091C302.856 115.954 303.778 115.031 304.915 115.031C306.053 115.031 306.975 115.953 306.975 117.091Z"
          fill="#FFC557"/>
    <path d="M314.054 117.091C314.054 118.228 313.132 119.151 311.995 119.151C310.858 119.151 309.935 118.228 309.935 117.091C309.935 115.954 310.857 115.031 311.995 115.031C313.132 115.031 314.054 115.953 314.054 117.091Z"
          fill="#FFC25A"/>
    <path d="M239.997 165.686C240.049 167.24 241.328 168.498 242.895 168.498H314.446C316.012 168.498 317.292 167.241 317.344 165.686H239.997Z"
          fill="#90D3F9"/>
    <path d="M297.372 142.028C296.63 137.787 292.933 134.564 288.48 134.564C286.829 134.564 285.283 135.009 283.952 135.783C281.781 131.064 277.014 127.785 271.479 127.785C263.898 127.785 257.752 133.931 257.752 141.511C257.752 141.868 257.77 142.222 257.797 142.572C254.509 143.86 252.179 147.058 252.179 150.803C252.179 155.685 256.136 159.643 261.019 159.643H296.322C301.204 159.643 305.162 155.685 305.162 150.803C305.162 146.277 301.758 142.547 297.372 142.028Z"
          fill="#65AFD8"/>
    <path d="M272.245 148.008L278.67 155.955L285.096 148.008H280.93V141.816H276.41V148.008H272.245Z" fill="#FFC25A"/>
    <path d="M252.007 259.444H74.8554C73.1126 259.444 71.6869 258.018 71.6869 256.275V89.645C71.6869 87.9023 73.1126 86.4766 74.8554 86.4766H252.008C253.751 86.4766 255.176 87.9023 255.176 89.645V256.275C255.176 258.018 253.75 259.444 252.007 259.444Z"
          fill="#F7FCFF"/>
    <path d="M252.007 86.4785H74.8555C73.1128 86.4785 71.6877 87.9043 71.6877 89.647V96.775H255.176V89.647C255.176 87.9043 253.75 86.4785 252.007 86.4785Z"
          fill="#90D3F9"/>
    <path d="M236.153 91.6248C236.153 92.8642 235.148 93.8687 233.909 93.8687C232.669 93.8687 231.665 92.8642 231.665 91.6248C231.665 90.3854 232.669 89.3809 233.909 89.3809C235.147 89.3809 236.153 90.3854 236.153 91.6248Z"
          fill="#C2E185"/>
    <path d="M243.867 91.6248C243.867 92.8642 242.862 93.8687 241.623 93.8687C240.384 93.8687 239.379 92.8642 239.379 91.6248C239.379 90.3854 240.384 89.3809 241.623 89.3809C242.862 89.3809 243.867 90.3854 243.867 91.6248Z"
          fill="#FFC557"/>
    <path d="M251.581 91.6248C251.581 92.8642 250.576 93.8687 249.337 93.8687C248.098 93.8687 247.093 92.8642 247.093 91.6248C247.093 90.3854 248.098 89.3809 249.337 89.3809C250.576 89.3809 251.581 90.3854 251.581 91.6248Z"
          fill="#FFC25A"/>
    <path d="M71.6971 256.381C71.7535 258.074 73.1479 259.445 74.8549 259.445H252.007C253.714 259.445 255.108 258.075 255.165 256.381H71.6971Z"
          fill="#90D3F9"/>
    <path d="M255.176 96.7734H248.57V256.38H255.176V96.7734Z" fill="#B5E4FF"/>
    <path d="M255.165 96.7734H248.57V103.368H255.165V96.7734Z" fill="#65AFD8"/>
    <path d="M253.606 101.216L251.868 98.9258L250.129 101.216" stroke="#B5E4FF" stroke-width="0.713942"
          stroke-miterlimit="10"/>
    <path d="M248.57 256.377H255.165V249.782H248.57V256.377Z" fill="#65AFD8"/>
    <path d="M250.129 251.936L251.868 254.226L253.606 251.936" stroke="#B5E4FF" stroke-width="0.713942"
          stroke-miterlimit="10"/>
    <path d="M255.176 106.324H248.57V149.208H255.176V106.324Z" fill="#65AFD8"/>
    <path d="M159.315 94.1854H78.2644C76.8565 94.1854 75.7049 93.0338 75.7049 91.6259C75.7049 90.218 76.8565 89.0664 78.2644 89.0664H159.315C160.723 89.0664 161.875 90.218 161.875 91.6259C161.876 93.0338 160.723 94.1854 159.315 94.1854Z"
          fill="#B5E4FF"/>
    <path d="M60.2333 234.086C58.0401 234.086 56.2617 235.864 56.2617 238.058C56.2617 240.251 58.0401 242.029 60.2333 242.029C62.4265 242.029 64.205 240.251 64.205 238.058C64.2043 235.864 62.4265 234.086 60.2333 234.086Z"
          fill="#FFC25A"/>
    <path d="M50.7292 228.985C50.0153 229.699 50.0153 230.856 50.7292 231.57C51.4432 232.283 52.6005 232.284 53.3144 231.57C57.1297 227.756 63.3375 227.755 67.152 231.57C67.509 231.927 67.9766 232.106 68.445 232.106C68.9133 232.106 69.381 231.927 69.7379 231.57C70.4519 230.856 70.4519 229.699 69.7379 228.985C64.4962 223.745 55.9696 223.745 50.7292 228.985Z"
          fill="#FFC25A"/>
    <path d="M60.2327 218.141C54.7974 218.141 49.6877 220.257 45.8446 224.101C45.1307 224.815 45.1307 225.972 45.8446 226.686C46.2016 227.043 46.6692 227.221 47.1368 227.221C47.6045 227.221 48.0728 227.043 48.4291 226.686C51.5818 223.533 55.7734 221.797 60.232 221.797C64.6905 221.797 68.8821 223.533 72.0348 226.686C72.7488 227.399 73.9054 227.4 74.62 226.686C75.334 225.972 75.334 224.815 74.62 224.101C70.7776 220.257 65.6679 218.141 60.2327 218.141Z"
          fill="#FFC25A"/>
    <path d="M80.0952 218.626C74.7899 213.321 67.7362 210.398 60.2334 210.398C52.7305 210.398 45.6768 213.321 40.3708 218.626C39.6568 219.34 39.6568 220.497 40.3708 221.211C41.0847 221.924 42.242 221.924 42.956 221.211C47.5709 216.596 53.7065 214.055 60.2334 214.055C66.7595 214.055 72.8958 216.596 77.51 221.211C77.867 221.568 78.3346 221.747 78.803 221.747C79.2706 221.747 79.739 221.568 80.0959 221.211C80.8092 220.497 80.8092 219.34 80.0952 218.626Z"
          fill="#FFC25A"/>
    <path d="M58.9898 232.186C56.7966 232.186 55.0182 233.964 55.0182 236.157C55.0182 238.35 56.7966 240.129 58.9898 240.129C61.1831 240.129 62.9615 238.35 62.9615 236.157C62.9615 233.964 61.1831 232.186 58.9898 232.186Z"
          fill="#FFC25A"/>
    <path d="M49.4858 227.083C48.7718 227.797 48.7718 228.954 49.4858 229.668C50.1997 230.381 51.357 230.382 52.071 229.668C55.8863 225.853 62.0933 225.852 65.9086 229.668C66.2656 230.025 66.7332 230.203 67.2015 230.203C67.6692 230.203 68.1375 230.025 68.4945 229.668C69.2084 228.954 69.2084 227.797 68.4945 227.083C63.2534 221.842 54.7261 221.842 49.4858 227.083Z"
          fill="#FFC25A"/>
    <path d="M58.9901 216.24C53.5548 216.24 48.4451 218.356 44.602 222.2C43.888 222.913 43.888 224.071 44.602 224.785C44.959 225.142 45.4266 225.32 45.8942 225.32C46.3618 225.32 46.8295 225.142 47.1865 224.785C50.3392 221.632 54.5308 219.896 58.9893 219.896C63.4479 219.896 67.6395 221.632 70.7922 224.785C71.5062 225.498 72.6627 225.498 73.3774 224.785C74.0913 224.071 74.0913 222.913 73.3774 222.2C69.535 218.356 64.4253 216.24 58.9901 216.24Z"
          fill="#FFC25A"/>
    <path d="M78.852 216.726C73.5467 211.42 66.493 208.498 58.9895 208.498C51.4866 208.498 44.4329 211.42 39.1269 216.726C38.4129 217.439 38.4129 218.597 39.1269 219.311C39.8408 220.025 40.9981 220.025 41.7121 219.311C46.327 214.696 52.4626 212.154 58.9895 212.154C65.5156 212.154 71.6519 214.696 76.2661 219.311C76.6231 219.668 77.0907 219.846 77.5584 219.846C78.026 219.846 78.4943 219.668 78.8513 219.311C79.566 218.597 79.566 217.439 78.852 216.726Z"
          fill="#FFC25A"/>
    <path d="M115.362 69.454H25.8779C24.2787 69.454 22.9708 68.1454 22.9708 66.5469V25.0576C22.9708 23.4583 24.2794 22.1504 25.8779 22.1504H115.361C116.96 22.1504 118.268 23.459 118.268 25.0576V66.5469C118.269 68.1454 116.96 69.454 115.362 69.454Z"
          fill="#F7FCFF"/>
    <path d="M115.362 22.1504H25.8779C24.2786 22.1504 22.9707 23.459 22.9707 25.0576V31.5994H118.269V25.0576C118.269 23.459 116.96 22.1504 115.362 22.1504Z"
          fill="#90D3F9"/>
    <path d="M100.812 26.8754C100.812 28.0127 99.8902 28.9351 98.7522 28.9351C97.6149 28.9351 96.6932 28.0127 96.6932 26.8754C96.6932 25.7381 97.6149 24.8164 98.7522 24.8164C99.8902 24.8157 100.812 25.7381 100.812 26.8754Z"
          fill="#C2E185"/>
    <path d="M107.891 26.8754C107.891 28.0127 106.969 28.9351 105.832 28.9351C104.694 28.9351 103.772 28.0127 103.772 26.8754C103.772 25.7381 104.694 24.8164 105.832 24.8164C106.969 24.8157 107.891 25.7381 107.891 26.8754Z"
          fill="#FFC557"/>
    <path d="M114.97 26.8754C114.97 28.0127 114.049 28.9351 112.911 28.9351C111.774 28.9351 110.852 28.0127 110.852 26.8754C110.852 25.7381 111.773 24.8164 112.911 24.8164C114.049 24.8157 114.97 25.7381 114.97 26.8754Z"
          fill="#FFC25A"/>
    <path d="M22.9805 66.6426C23.0326 68.1968 24.312 69.4541 25.8784 69.4541H115.362C116.928 69.4541 118.207 68.1968 118.26 66.6426H22.9805Z"
          fill="#90D3F9"/>
    <path d="M101.938 55.2926H39.3237C35.5698 55.2926 32.4977 52.2212 32.4977 48.4666C32.4977 44.7127 35.5691 41.6406 39.3237 41.6406H101.938C105.692 41.6406 108.764 44.712 108.764 48.4666C108.764 52.2212 105.692 55.2926 101.938 55.2926Z"
          fill="#E1F4FF"/>
    <path d="M100.155 45.3749C101.232 46.4523 101.232 48.2 100.155 49.2774C99.0778 50.3554 97.3301 50.3554 96.2528 49.2774C95.1747 48.2 95.1747 46.4523 96.2528 45.3749C97.3301 44.2969 99.0778 44.2969 100.155 45.3749Z"
          stroke="#90D3F9" stroke-width="1.42788" stroke-miterlimit="10" stroke-linecap="round"
          stroke-linejoin="round"/>
    <path d="M102.812 51.9346L100.155 49.2773" stroke="#90D3F9" stroke-width="1.42788" stroke-miterlimit="10"
          stroke-linecap="round" stroke-linejoin="round"/>
    <path d="M44.7406 48.1673C45.0405 48.1673 45.307 48.234 45.5402 48.3672C45.7735 48.4957 45.9543 48.6885 46.0828 48.9455C46.2161 49.1978 46.2827 49.5024 46.2827 49.8594V52.1797H45.2832V49.995C45.2832 49.6809 45.2047 49.4405 45.0476 49.2739C44.8906 49.1026 44.6764 49.0169 44.4051 49.0169C44.129 49.0169 43.9101 49.1026 43.7482 49.2739C43.5912 49.4405 43.5126 49.6809 43.5126 49.995V52.1797H42.5131V46.8965H43.5126V48.7171C43.6412 48.5457 43.8125 48.4125 44.0267 48.3173C44.2409 48.2173 44.4788 48.1673 44.7406 48.1673ZM48.397 49.0455V50.9588C48.397 51.0921 48.4279 51.1897 48.4898 51.2516C48.5564 51.3087 48.6659 51.3372 48.8182 51.3372H49.2822V52.1797H48.654C47.8115 52.1797 47.3903 51.7704 47.3903 50.9517V49.0455H46.9191V48.2244H47.3903V47.2463H48.397V48.2244H49.2822V49.0455H48.397ZM51.1649 49.0455V50.9588C51.1649 51.0921 51.1958 51.1897 51.2577 51.2516C51.3243 51.3087 51.4338 51.3372 51.5861 51.3372H52.0502V52.1797H51.4219C50.5794 52.1797 50.1582 51.7704 50.1582 50.9517V49.0455H49.687V48.2244H50.1582V47.2463H51.1649V48.2244H52.0502V49.0455H51.1649ZM53.7686 48.7956C53.8971 48.6147 54.0732 48.4648 54.2969 48.3458C54.5254 48.2221 54.7848 48.1602 55.0751 48.1602C55.413 48.1602 55.7176 48.2435 55.9889 48.4101C56.265 48.5767 56.4816 48.8146 56.6386 49.124C56.8005 49.4286 56.8814 49.7832 56.8814 50.1878C56.8814 50.5924 56.8005 50.9517 56.6386 51.2658C56.4816 51.5752 56.265 51.8156 55.9889 51.9869C55.7176 52.1583 55.413 52.2439 55.0751 52.2439C54.7848 52.2439 54.5277 52.1844 54.304 52.0655C54.0851 51.9465 53.9066 51.7965 53.7686 51.6157V54.0645H52.7691V48.2244H53.7686V48.7956ZM55.8604 50.1878C55.8604 49.9498 55.8105 49.7451 55.7105 49.5738C55.6153 49.3977 55.4868 49.2644 55.325 49.174C55.1679 49.0836 54.9966 49.0383 54.8109 49.0383C54.6301 49.0383 54.4587 49.0859 54.2969 49.1811C54.1398 49.2716 54.0113 49.4048 53.9114 49.5809C53.8162 49.757 53.7686 49.9641 53.7686 50.2021C53.7686 50.44 53.8162 50.6471 53.9114 50.8232C54.0113 50.9993 54.1398 51.135 54.2969 51.2301C54.4587 51.3206 54.6301 51.3658 54.8109 51.3658C54.9966 51.3658 55.1679 51.3182 55.325 51.223C55.4868 51.1278 55.6153 50.9922 55.7105 50.8161C55.8105 50.64 55.8604 50.4305 55.8604 50.1878ZM58.0503 52.2297C57.8695 52.2297 57.7195 52.1749 57.6006 52.0655C57.4863 51.9512 57.4292 51.8108 57.4292 51.6442C57.4292 51.4776 57.4863 51.3396 57.6006 51.2301C57.7195 51.1159 57.8695 51.0588 58.0503 51.0588C58.2264 51.0588 58.3716 51.1159 58.4858 51.2301C58.6001 51.3396 58.6572 51.4776 58.6572 51.6442C58.6572 51.8108 58.6001 51.9512 58.4858 52.0655C58.3716 52.1749 58.2264 52.2297 58.0503 52.2297ZM58.0503 49.2739C57.8695 49.2739 57.7195 49.2192 57.6006 49.1097C57.4863 48.9955 57.4292 48.8551 57.4292 48.6885C57.4292 48.5219 57.4863 48.3839 57.6006 48.2744C57.7195 48.1602 57.8695 48.1031 58.0503 48.1031C58.2264 48.1031 58.3716 48.1602 58.4858 48.2744C58.6001 48.3839 58.6572 48.5219 58.6572 48.6885C58.6572 48.8551 58.6001 48.9955 58.4858 49.1097C58.3716 49.2192 58.2264 49.2739 58.0503 49.2739ZM62.1605 45.4187L60.2328 53.4719H59.2547L61.1824 45.4187H62.1605ZM65.6326 45.4187L63.7049 53.4719H62.7268L64.6545 45.4187H65.6326ZM71.9105 48.2244L70.7539 52.1797H69.6758L68.9547 49.4167L68.2337 52.1797H67.1485L65.9847 48.2244H66.9985L67.6982 51.2373L68.455 48.2244H69.5116L70.2541 51.2301L70.9538 48.2244H71.9105ZM77.9343 48.2244L76.7778 52.1797H75.6997L74.9786 49.4167L74.2575 52.1797H73.1724L72.0086 48.2244H73.0224L73.7221 51.2373L74.4789 48.2244H75.5355L76.278 51.2301L76.9777 48.2244H77.9343ZM83.9582 48.2244L82.8016 52.1797H81.7236L81.0025 49.4167L80.2814 52.1797H79.1962L78.0325 48.2244H79.0463L79.746 51.2373L80.5028 48.2244H81.5594L82.3019 51.2301L83.0015 48.2244H83.9582ZM84.9417 52.2297C84.7608 52.2297 84.6109 52.1749 84.4919 52.0655C84.3777 51.9512 84.3206 51.8108 84.3206 51.6442C84.3206 51.4776 84.3777 51.3396 84.4919 51.2301C84.6109 51.1159 84.7608 51.0588 84.9417 51.0588C85.1178 51.0588 85.263 51.1159 85.3772 51.2301C85.4914 51.3396 85.5485 51.4776 85.5485 51.6442C85.5485 51.8108 85.4914 51.9512 85.3772 52.0655C85.263 52.1749 85.1178 52.2297 84.9417 52.2297Z"
          fill="#65AFD8"/>
    <path d="M291.103 219.944C297.255 213.793 297.255 203.82 291.103 197.669C284.952 191.518 274.98 191.518 268.828 197.669C262.677 203.82 262.677 213.793 268.828 219.944C274.98 226.095 284.952 226.095 291.103 219.944Z"
          fill="#FCB023"/>
    <path d="M267.254 218.097C270.119 222.012 274.746 224.556 279.969 224.556C288.668 224.556 295.72 217.505 295.72 208.805C295.72 206.615 295.272 204.53 294.464 202.635C280.209 203.252 271.462 212.248 267.254 218.097Z"
          fill="#FFC25A"/>
    <path d="M287.699 207.611L276.392 201.083C275.473 200.553 274.324 201.216 274.324 202.277V215.333C274.324 216.394 275.473 217.058 276.392 216.527L287.699 209.999C288.618 209.468 288.618 208.143 287.699 207.611Z"
          fill="#F7FCFF"/>
    <path d="M208.075 19.1289H262.974C265.492 19.1289 267.551 21.1886 267.551 23.706V39.7011C267.551 42.2185 265.492 44.2782 262.974 44.2782H223.316C223.125 44.2782 222.171 52.6463 209.203 52.6977C209.203 52.6977 213.208 49.5428 213.208 44.2782H208.074C205.557 44.2782 203.497 42.2185 203.497 39.7011V23.706C203.498 21.1886 205.558 19.1289 208.075 19.1289Z"
          fill="#FFC25A"/>
    <path d="M291.717 54.0703H236.817C234.299 54.0703 232.24 56.13 232.24 58.6474V74.6425C232.24 77.1599 234.299 79.2196 236.817 79.2196H276.476C276.666 79.2196 277.62 87.5877 290.587 87.6391C290.587 87.6391 286.583 84.4842 286.583 79.2196H291.716C294.233 79.2196 296.293 77.1599 296.293 74.6425V58.6474C296.294 56.1293 294.234 54.0703 291.717 54.0703Z"
          fill="#B5E4FF"/>
    <path d="M219.822 35.8534C221.636 35.8534 223.106 34.3831 223.106 32.5693C223.106 30.7555 221.636 29.2852 219.822 29.2852C218.008 29.2852 216.538 30.7555 216.538 32.5693C216.538 34.3831 218.008 35.8534 219.822 35.8534Z"
          fill="#F7FCFF"/>
    <path d="M235.524 35.8534C237.338 35.8534 238.809 34.3831 238.809 32.5693C238.809 30.7555 237.338 29.2852 235.524 29.2852C233.711 29.2852 232.24 30.7555 232.24 32.5693C232.24 34.3831 233.711 35.8534 235.524 35.8534Z"
          fill="#F7FCFF"/>
    <path d="M251.227 35.8534C253.041 35.8534 254.511 34.3831 254.511 32.5693C254.511 30.7555 253.041 29.2852 251.227 29.2852C249.413 29.2852 247.943 30.7555 247.943 32.5693C247.943 34.3831 249.413 35.8534 251.227 35.8534Z"
          fill="#F7FCFF"/>
    <path d="M251.849 66.1376C251.849 67.9511 250.378 69.4218 248.565 69.4218C246.751 69.4218 245.28 67.9511 245.28 66.1376C245.28 64.3235 246.751 62.8535 248.565 62.8535C250.378 62.8535 251.849 64.3235 251.849 66.1376Z"
          fill="#65AFD8"/>
    <path d="M264.267 69.4218C266.081 69.4218 267.551 67.9514 267.551 66.1376C267.551 64.3239 266.081 62.8535 264.267 62.8535C262.453 62.8535 260.983 64.3239 260.983 66.1376C260.983 67.9514 262.453 69.4218 264.267 69.4218Z"
          fill="#65AFD8"/>
    <path d="M283.254 66.1376C283.254 67.9511 281.783 69.4218 279.97 69.4218C278.155 69.4218 276.685 67.9511 276.685 66.1376C276.685 64.3235 278.156 62.8535 279.97 62.8535C281.783 62.8535 283.254 64.3235 283.254 66.1376Z"
          fill="#65AFD8"/>
    <mask id="mask0_2020_12203" style="mask-type:luminance" maskUnits="userSpaceOnUse" x="71" y="53" width="203"
          height="204">
        <path d="M270.083 53.0449H74.8554C73.1126 53.0449 71.6869 54.4707 71.6869 56.2134V256.276H273.251V56.2127C273.251 54.4707 271.825 53.0449 270.083 53.0449Z"
              fill="white"/>
    </mask>
    <g mask="url(#mask0_2020_12203)">
        <path d="M240.933 184.443C240.933 184.443 242.447 174.752 243.673 172.885C244.9 171.018 260.002 162.402 263.06 160.75C266.119 159.099 265.673 157.924 264.262 157.416C262.851 156.907 256.719 159.046 256.719 159.046C256.719 159.046 263.569 155.499 267.894 153.145C272.22 150.79 271.759 148.451 269.592 148.431C267.425 148.411 259.022 151.144 254.715 154.049C254.715 154.049 265.718 146.818 268.061 144.836C270.405 142.855 269.891 140.06 265.815 141.418C265.815 141.418 266.758 138.498 263.264 138.543C259.77 138.589 251.475 142.62 247.803 145.256C246.191 146.414 243.038 148.321 242.427 146.906C241.816 145.49 245.267 142.64 246.18 141.012C247.092 139.384 246.91 135.841 245.9 135.151C244.89 134.461 244.483 134.857 243.29 136.058C242.097 137.258 237.798 143.825 234.992 146.727C232.187 149.629 229.022 154.25 228.679 156.409C228.336 158.568 228.639 161.829 228.639 161.829C228.639 161.829 224.343 171.535 222.79 178.344L240.933 184.443Z"
              fill="#A55B5B"/>
        <path d="M265.814 141.418C262.324 142.66 255.788 146.284 251.52 149.855" stroke="#6D303F"
              stroke-width="0.713942" stroke-miterlimit="10"/>
        <path d="M251.949 161.503C251.949 161.503 249.256 154.799 245.4 151.02" stroke="#6D303F" stroke-width="0.713942"
              stroke-miterlimit="10"/>
        <path d="M240.879 149.391C240.879 149.391 239.324 159.14 233.183 166.228" stroke="#6D303F"
              stroke-width="0.713942" stroke-miterlimit="10"/>
        <path d="M248.716 161.125C248.716 161.125 241.032 161.88 235.192 166.656" stroke="#6D303F"
              stroke-width="0.713942" stroke-miterlimit="10"/>
        <path d="M213.652 189.661C213.652 189.661 209.471 174.463 204.984 169.958C197.485 162.428 172.16 155.729 172.16 155.729H144.777C144.777 155.729 119.452 162.428 111.952 169.959C107.465 174.464 103.284 189.662 103.284 189.662C103.284 189.662 96.5648 189.662 94.2131 195.71C91.8614 201.758 89.8452 227.711 94.2131 237.119C98.581 246.526 113.028 243.754 120.419 237.371C120.419 237.371 118.067 259.88 118.067 262.233C118.067 264.585 130.834 268.784 158.468 268.784C186.102 268.784 203.069 265.928 203.404 261.729C203.74 257.529 200.885 225.948 200.885 225.948C200.885 225.948 203.908 237.875 217.515 239.555C231.122 241.234 237.505 226.619 240.698 212.257C243.89 197.894 247.404 177.904 246.956 174.88C246.508 171.856 245.233 170.177 236.33 168.16C227.426 166.144 225.915 165.809 223.394 168.16C220.875 170.511 213.652 189.661 213.652 189.661Z"
              fill="#0167A2"/>
        <path d="M177.164 157.174C174.144 156.254 172.159 155.729 172.159 155.729H144.776C144.776 155.729 142.792 156.254 139.772 157.174C139.772 157.176 144.624 167.319 158.895 167.319C173.166 167.319 177.164 157.176 177.164 157.174Z"
              fill="#49B6F4"/>
        <path d="M94.2136 195.709C91.8619 201.757 89.8457 227.71 94.2136 237.118C98.5815 246.525 113.028 243.753 120.42 237.37C120.42 237.37 120.361 237.929 120.263 238.877C123.275 230.821 124.753 217.252 124.198 206.292C123.44 191.341 122.435 165.807 111.952 169.958C107.465 174.463 103.284 189.661 103.284 189.661C103.284 189.661 96.5653 189.661 94.2136 195.709Z"
              fill="#49B6F4"/>
        <path d="M200.884 225.947L201.311 227.205C202.519 230.311 206.629 238.21 217.515 239.554C231.122 241.234 237.505 226.619 240.697 212.257C243.889 197.893 247.403 177.903 246.956 174.88C246.508 171.856 245.233 170.176 236.329 168.16C227.427 166.144 225.914 165.808 223.394 168.16C220.875 170.512 213.651 189.662 213.651 189.662C213.651 189.662 209.47 174.464 204.983 169.959C192.788 164.03 192.653 202.093 200.884 225.947Z"
              fill="#49B6F4"/>
        <path d="M120.42 237.369C124.451 233.001 121.691 206.647 121.259 199.96C120.508 188.317 113.028 188.653 103.285 189.66"
              stroke="#65AFD8" stroke-width="0.713942" stroke-miterlimit="10"/>
        <path d="M213.652 189.662C213.652 189.662 206.428 204.445 207.101 221.747" stroke="#65AFD8"
              stroke-width="0.713942" stroke-miterlimit="10"/>
        <path d="M202.397 214.357C202.397 214.357 206.802 197.139 212.747 191.721" stroke="#65AFD8"
              stroke-width="0.713942" stroke-miterlimit="10"/>
        <path d="M158.468 219.226C169.972 219.226 179.298 209.9 179.298 198.396C179.298 186.892 169.972 177.566 158.468 177.566C146.964 177.566 137.638 186.892 137.638 198.396C137.638 209.9 146.964 219.226 158.468 219.226Z"
              fill="#B5E4FF"/>
        <path d="M156.018 195.542C156.018 198.133 154.893 200.234 153.506 200.234C152.118 200.234 150.993 198.133 150.993 195.542C150.993 192.95 152.119 190.85 153.506 190.85C154.893 190.849 156.018 192.95 156.018 195.542Z"
              fill="#65AFD8"/>
        <path d="M165.943 195.542C165.943 198.133 164.818 200.234 163.431 200.234C162.043 200.234 160.919 198.133 160.919 195.542C160.919 192.95 162.044 190.85 163.431 190.85C164.819 190.849 165.943 192.95 165.943 195.542Z"
              fill="#65AFD8"/>
        <path d="M147.704 196.885C147.704 196.885 147.871 201.295 142.496 203.038" stroke="#65AFD8"
              stroke-width="1.42788" stroke-miterlimit="10"/>
        <path d="M170.797 200.748C169.337 204.612 165.369 208.307 158.468 208.307C151.567 208.307 147.6 204.612 146.14 200.748"
              stroke="#65AFD8" stroke-width="1.42788" stroke-miterlimit="10"/>
        <path d="M169.233 196.885C169.233 196.885 169.066 201.295 174.441 203.038" stroke="#65AFD8"
              stroke-width="1.42788" stroke-miterlimit="10"/>
        <path d="M146.016 63.6205C146.016 63.6205 138.644 55.6993 128.182 60.0329C117.807 64.3309 122.052 75.891 122.052 75.891C122.052 75.891 114.557 74.0448 110.255 79.5071C105.98 84.9345 110.926 92.9435 110.926 92.9435C110.926 92.9435 101.767 94.2372 101.015 106.035C100.272 117.718 112.114 123.681 112.114 123.681C112.114 123.681 108.08 133.086 116.937 139.994C125.781 146.891 133.248 140.701 133.248 140.701C133.248 140.701 137.227 149.533 148.059 148.315C158.958 147.089 159.82 139.285 159.82 139.285C159.82 139.285 172.643 145.358 182.553 139.53C192.556 133.647 187.892 123.055 187.892 123.055C187.892 123.055 198.265 122.371 200.11 113.81C201.969 105.183 197.699 98.3945 197.699 98.3945C197.699 98.3945 205.435 93.1684 201.3 84.2748C197.143 75.3356 187.336 77.441 187.336 77.441C187.336 77.441 191.026 68.5196 184.341 63.8975C177.653 59.2726 171.434 65.219 171.434 65.219C171.434 65.219 168.373 57.1036 157.229 56.8245C149.279 56.6253 146.016 63.6205 146.016 63.6205Z"
              fill="#01253A"/>
        <path d="M126.459 114.511C126.459 114.511 121.087 107.626 116.788 113.943C112.276 120.573 121.69 138.997 132.762 133.36L126.459 114.511Z"
              fill="#A55B5B"/>
        <path d="M120.297 130.041C123.474 133.721 127.961 135.804 132.762 133.359L126.459 114.51C126.459 114.51 113.861 115.871 120.297 130.041Z"
              fill="#894351"/>
        <path d="M183.094 103.32C183.094 103.32 185.443 94.9086 191.822 99.1159C198.516 103.531 196.818 124.152 184.434 123.15L183.094 103.32Z"
              fill="#A55B5B"/>
        <path d="M194.7 115.339C193.161 119.951 189.803 123.584 184.434 123.15L183.094 103.319C183.094 103.319 195.263 99.7858 194.7 115.339Z"
              fill="#894351"/>
        <path d="M172.16 137.25H158.469H144.777C144.777 137.25 146.375 148.505 144.777 155.728C144.777 155.728 148.04 161.272 158.469 161.272C168.897 161.272 172.16 155.728 172.16 155.728C170.562 148.505 172.16 137.25 172.16 137.25Z"
              fill="#894351"/>
        <path d="M150.575 80.2186C171.989 77.0715 183.151 89.8025 184.794 111.836C186.436 133.87 174.171 143.06 160.115 145.126C146.058 147.192 131.667 141.919 126.901 120.344C122.134 98.7703 130.132 83.2228 150.575 80.2186Z"
              fill="#A55B5B"/>
        <path d="M157.229 56.8245C149.279 56.6253 146.016 63.6205 146.016 63.6205C146.016 63.6205 138.644 55.7 128.182 60.0329C117.807 64.3309 122.052 75.891 122.052 75.891C122.052 75.891 114.557 74.0448 110.255 79.5071C105.98 84.9345 110.926 92.9435 110.926 92.9435C110.926 92.9435 101.767 94.2372 101.015 106.035C100.272 117.718 112.114 123.681 112.114 123.681C112.114 123.681 120.582 125.996 123.378 115.953C123.378 115.953 136.418 115.975 141.138 107.724C145.899 99.4004 142.199 92.6551 142.199 92.6551C142.199 92.6551 148.36 97.9989 153.559 96.1427C158.778 94.2793 156.961 87.3698 156.961 87.3698C156.961 87.3698 166.797 88.6827 171.314 81.3584C176.633 72.7325 171.434 65.2183 171.434 65.2183C171.434 65.2183 168.373 57.1029 157.229 56.8245Z"
              fill="#024C76"/>
        <path d="M154.22 104.395C154.22 104.395 153.001 109.806 156.18 116.864C156.664 117.94 161.698 117.606 160.849 122.223C160.32 125.099 157.392 127.407 157.392 127.407"
              stroke="#6D303F" stroke-width="0.713942" stroke-miterlimit="10"/>
        <path d="M166.695 126.938C166.695 126.938 165.522 132.707 159.05 133.546C152.578 134.385 149.365 131.336 148.421 128.534"
              stroke="#6D303F" stroke-width="0.713942" stroke-miterlimit="10"/>
        <path d="M180.8 112.859C182.199 112.653 183.567 112.695 184.855 112.932C185.277 120.677 183.947 126.791 181.405 131.522C176.339 131.409 172.06 128.209 171.398 123.708C170.646 118.59 174.855 113.733 180.8 112.859Z"
              fill="#AF435D"/>
        <path d="M127.156 121.407C128.319 120.812 129.613 120.38 131.008 120.175C136.953 119.301 142.382 122.741 143.135 127.86C143.796 132.357 140.623 136.652 135.809 138.22C132.013 134.42 128.98 128.945 127.156 121.407Z"
              fill="#AF435D"/>
        <path d="M163.126 117.605C163.126 117.605 161.499 106.421 170.07 105.987C175.49 105.713 177.038 111.903 177.038 111.903C177.038 111.903 177.501 115.26 173.811 117.452C168.855 120.396 163.126 117.605 163.126 117.605Z"
              fill="#F7FCFF"/>
        <mask id="mask1_2020_12203" style="mask-type:luminance" maskUnits="userSpaceOnUse" x="163" y="105" width="15"
              height="14">
            <path d="M163.126 117.605C163.126 117.605 161.499 106.421 170.07 105.987C175.49 105.713 177.038 111.903 177.038 111.903C177.038 111.903 177.501 115.26 173.811 117.452C168.855 120.396 163.126 117.605 163.126 117.605Z"
                  fill="white"/>
        </mask>
        <g mask="url(#mask1_2020_12203)">
            <path d="M170.029 114.032C170.588 117.842 168.413 121.317 165.17 121.793C161.927 122.27 158.844 119.567 158.284 115.758C157.724 111.949 159.9 108.474 163.143 107.998C166.385 107.521 169.469 110.223 170.029 114.032Z"
                  fill="#272347"/>
        </g>
        <path d="M170.07 105.989C175.49 105.715 177.038 111.905 177.038 111.905C177.038 111.905 169.939 108.471 163.126 117.606C163.126 117.606 161.499 106.423 170.07 105.989Z"
              fill="#B5E4FF"/>
        <path d="M163.126 117.605C162.451 115.555 162.286 113.319 162.752 111.097C162.979 109.986 163.42 108.876 164.128 107.887C164.832 106.902 165.841 106.079 166.972 105.595C168.12 105.122 169.293 104.928 170.494 104.981C171.703 105.02 172.95 105.398 173.927 106.115C174.923 106.807 175.643 107.759 176.154 108.751C176.645 109.76 176.977 110.82 177.038 111.904C176.022 110.032 174.692 108.371 173.057 107.543C172.235 107.148 171.365 106.972 170.47 107.013C169.567 107.032 168.619 107.222 167.821 107.562C166.199 108.239 165.042 109.72 164.349 111.565C163.663 113.408 163.329 115.472 163.126 117.605Z"
              fill="#272347"/>
        <path d="M168.483 112.08C168.581 112.746 169.422 113.173 170.361 113.036C171.3 112.898 171.982 112.246 171.884 111.581C171.787 110.915 170.946 110.488 170.007 110.625C169.068 110.763 168.385 111.415 168.483 112.08Z"
              fill="white"/>
        <path d="M149.312 119.637C149.312 119.637 147.652 108.459 139.319 110.509C134.05 111.805 134.348 118.18 134.348 118.18C134.348 118.18 134.87 121.528 139.034 122.565C144.629 123.958 149.312 119.637 149.312 119.637Z"
              fill="#F7FCFF"/>
        <mask id="mask2_2020_12203" style="mask-type:luminance" maskUnits="userSpaceOnUse" x="134" y="110" width="16"
              height="13">
            <path d="M149.312 119.637C149.312 119.637 147.652 108.459 139.319 110.509C134.05 111.805 134.348 118.18 134.348 118.18C134.348 118.18 134.87 121.528 139.034 122.565C144.629 123.958 149.312 119.637 149.312 119.637Z"
                  fill="white"/>
        </mask>
        <g mask="url(#mask2_2020_12203)">
            <path d="M142.051 118.031C142.61 121.84 140.435 125.315 137.192 125.791C133.948 126.268 130.865 123.566 130.306 119.756C129.746 115.947 131.921 112.472 135.164 111.996C138.407 111.52 141.49 114.221 142.051 118.031Z"
                  fill="#272347"/>
        </g>
        <path d="M139.319 110.509C134.05 111.806 134.348 118.18 134.348 118.18C134.348 118.18 140.16 112.848 149.312 119.637C149.312 119.637 147.652 108.458 139.319 110.509Z"
              fill="#B5E4FF"/>
        <path d="M149.312 119.636C148.503 117.652 147.591 115.771 146.402 114.204C145.208 112.636 143.675 111.55 141.926 111.369C141.064 111.273 140.102 111.364 139.231 111.605C138.362 111.823 137.58 112.242 136.905 112.856C135.577 114.12 134.782 116.093 134.347 118.179C134.095 117.123 134.107 116.012 134.287 114.905C134.491 113.807 134.906 112.689 135.661 111.74C136.39 110.772 137.476 110.051 138.622 109.667C139.758 109.27 140.937 109.117 142.172 109.241C143.395 109.379 144.598 109.876 145.555 110.617C146.518 111.361 147.26 112.297 147.798 113.296C148.883 115.289 149.369 117.478 149.312 119.636Z"
              fill="#272347"/>
        <path d="M143.1 115.809C143.198 116.475 142.516 117.126 141.577 117.264C140.637 117.402 139.797 116.974 139.699 116.309C139.601 115.644 140.283 114.992 141.223 114.854C142.162 114.716 143.003 115.144 143.1 115.809Z"
              fill="white"/>
        <path d="M160.049 96.6087C164.349 91.5375 175.17 94.3483 175.408 101.017C171.417 96.8 165.021 96.3188 160.049 96.6087Z"
              fill="#272347"/>
        <path d="M106.787 185.26L121.985 176.503C123.521 175.618 124.054 173.637 123.168 172.101L103.24 137.516C102.355 135.98 100.374 135.447 98.8381 136.332L83.6404 145.09C82.104 145.975 81.5714 147.956 82.4567 149.493L102.385 184.077C103.27 185.613 105.251 186.146 106.787 185.26Z"
              fill="#FF809F"/>
        <path d="M103.885 147.941C105.059 147.264 105.467 145.749 104.79 144.574L102.344 140.33C101.667 139.156 100.152 138.748 98.9779 139.425C97.8035 140.102 97.3958 141.617 98.0726 142.791L100.519 147.035C101.195 148.211 102.71 148.618 103.885 147.941Z"
              fill="#FFC25A"/>
        <path d="M98.9123 142.918C99.4092 143.78 100.511 144.076 101.373 143.579C102.234 143.082 102.531 141.981 102.034 141.119C101.537 140.257 100.436 139.961 99.5741 140.458C98.7117 140.955 98.4154 142.056 98.9123 142.918Z"
              fill="#2E607C"/>
        <path d="M99.7062 142.462C99.9503 142.885 100.492 143.031 100.915 142.787C101.338 142.543 101.484 142.001 101.24 141.578C100.996 141.155 100.454 141.009 100.031 141.253C99.6076 141.497 99.462 142.038 99.7062 142.462Z"
              fill="#272347"/>
        <path d="M101.588 145.727C101.832 146.151 102.373 146.297 102.797 146.052C103.22 145.808 103.366 145.267 103.122 144.844C102.877 144.42 102.336 144.275 101.913 144.519C101.489 144.763 101.344 145.304 101.588 145.727Z"
              fill="#FFC25A"/>
        <path d="M97.4387 192.016C97.4387 192.016 92.9095 183.3 92.3147 181.509C91.72 179.718 91.7279 176.978 90.5527 172.184C89.3769 167.39 87.1544 165.717 86.6639 164.96C86.1734 164.203 86.5639 163.267 87.3393 163.094C88.1146 162.92 90.1965 162.925 90.9775 164.28C91.7586 165.635 97.4858 175.576 97.5808 175.74C98.5539 177.428 103.01 174.527 104.303 169.459C105.595 164.392 110.382 154.849 110.974 152.648C111.566 150.447 113.003 149.236 114.398 149.854C115.794 150.473 116.135 151.918 115.332 154.514C114.53 157.109 111.176 169.329 111.9 169.731C112.625 170.135 116.069 159.779 116.069 159.779L115.691 159.121C115.691 159.121 116.205 158.114 117.452 158.38C118.699 158.647 120.293 160.085 120.726 161.309C121.382 163.16 120.51 164.827 120.51 164.827C120.51 164.827 121.628 163.634 122.701 164.165C123.773 164.697 124.824 166.334 124.99 167.332C125.155 168.331 124.305 170.462 124.305 170.462C124.305 170.462 125.403 169.994 126.153 170.82C126.902 171.647 127.32 173.321 126.728 175.522C126.136 177.723 119.714 191.929 118.806 193.108C117.899 194.287 116.355 195.422 115.379 196.56C114.264 197.858 99.7612 195.382 97.4387 192.016Z"
              fill="#A55B5B"/>
        <path d="M120.509 164.826L118.403 172.439" stroke="#6D303F" stroke-width="0.713942" stroke-miterlimit="10"/>
        <path d="M124.303 170.461L122.369 176.791" stroke="#6D303F" stroke-width="0.713942" stroke-miterlimit="10"/>
        <path d="M133.789 105.331C134.844 98.8716 144.106 94.2752 149.38 98.0562C143.479 98.5039 137.988 102.156 133.789 105.331Z"
              fill="#272347"/>
    </g>
    <path d="M18.7545 214.072V218.272" stroke="#90D3F9" stroke-width="1.42788" stroke-miterlimit="10"/>
    <path d="M18.7545 226.195V230.395" stroke="#90D3F9" stroke-width="1.42788" stroke-miterlimit="10"/>
    <path d="M26.9154 222.234H22.716" stroke="#90D3F9" stroke-width="1.42788" stroke-miterlimit="10"/>
    <path d="M14.7927 222.234H10.5933" stroke="#90D3F9" stroke-width="1.42788" stroke-miterlimit="10"/>
    <path d="M22.8347 215.166L20.735 218.803" stroke="#90D3F9" stroke-width="1.42788" stroke-miterlimit="10"/>
    <path d="M16.7735 225.664L14.6738 229.301" stroke="#90D3F9" stroke-width="1.42788" stroke-miterlimit="10"/>
    <path d="M25.8225 226.315L22.1849 224.215" stroke="#90D3F9" stroke-width="1.42788" stroke-miterlimit="10"/>
    <path d="M15.3234 220.252L11.6866 218.152" stroke="#90D3F9" stroke-width="1.42788" stroke-miterlimit="10"/>
    <path d="M14.6738 215.166L16.7735 218.803" stroke="#90D3F9" stroke-width="1.42788" stroke-miterlimit="10"/>
    <path d="M20.735 225.664L22.8347 229.301" stroke="#90D3F9" stroke-width="1.42788" stroke-miterlimit="10"/>
    <path d="M25.8222 218.152L22.1847 220.252" stroke="#90D3F9" stroke-width="1.42788" stroke-miterlimit="10"/>
    <path d="M15.3234 224.215L11.6866 226.315" stroke="#90D3F9" stroke-width="1.42788" stroke-miterlimit="10"/>
    <path d="M47.4156 79.4785V83.6786" stroke="#90D3F9" stroke-width="1.42788" stroke-miterlimit="10"/>
    <path d="M47.4156 91.6016V95.8017" stroke="#90D3F9" stroke-width="1.42788" stroke-miterlimit="10"/>
    <path d="M55.5775 87.6406H51.3774" stroke="#90D3F9" stroke-width="1.42788" stroke-miterlimit="10"/>
    <path d="M43.4548 87.6406H39.2547" stroke="#90D3F9" stroke-width="1.42788" stroke-miterlimit="10"/>
    <path d="M51.4967 80.5723L49.397 84.2091" stroke="#90D3F9" stroke-width="1.42788" stroke-miterlimit="10"/>
    <path d="M45.4352 91.0703L43.3354 94.7071" stroke="#90D3F9" stroke-width="1.42788" stroke-miterlimit="10"/>
    <path d="M54.4837 91.7208L50.8469 89.6211" stroke="#90D3F9" stroke-width="1.42788" stroke-miterlimit="10"/>
    <path d="M43.9848 85.6583L40.348 83.5586" stroke="#90D3F9" stroke-width="1.42788" stroke-miterlimit="10"/>
    <path d="M43.3354 80.5723L45.4352 84.2091" stroke="#90D3F9" stroke-width="1.42788" stroke-miterlimit="10"/>
    <path d="M49.397 91.0703L51.4967 94.7071" stroke="#90D3F9" stroke-width="1.42788" stroke-miterlimit="10"/>
    <path d="M54.4837 83.5586L50.8469 85.6583" stroke="#90D3F9" stroke-width="1.42788" stroke-miterlimit="10"/>
    <path d="M43.9848 89.6211L40.348 91.7208" stroke="#90D3F9" stroke-width="1.42788" stroke-miterlimit="10"/>
    <path d="M313.562 73.418V77.6181" stroke="#90D3F9" stroke-width="1.42788" stroke-miterlimit="10"/>
    <path d="M313.562 85.541V89.7411" stroke="#90D3F9" stroke-width="1.42788" stroke-miterlimit="10"/>
    <path d="M321.723 81.5801H317.523" stroke="#90D3F9" stroke-width="1.42788" stroke-miterlimit="10"/>
    <path d="M309.6 81.5801H305.401" stroke="#90D3F9" stroke-width="1.42788" stroke-miterlimit="10"/>
    <path d="M317.643 74.5117L315.543 78.1485" stroke="#90D3F9" stroke-width="1.42788" stroke-miterlimit="10"/>
    <path d="M311.581 85.0098L309.482 88.6466" stroke="#90D3F9" stroke-width="1.42788" stroke-miterlimit="10"/>
    <path d="M320.63 85.6603L316.993 83.5605" stroke="#90D3F9" stroke-width="1.42788" stroke-miterlimit="10"/>
    <path d="M310.131 79.5977L306.494 77.498" stroke="#90D3F9" stroke-width="1.42788" stroke-miterlimit="10"/>
    <path d="M309.482 74.5117L311.581 78.1485" stroke="#90D3F9" stroke-width="1.42788" stroke-miterlimit="10"/>
    <path d="M315.543 85.0098L317.643 88.6466" stroke="#90D3F9" stroke-width="1.42788" stroke-miterlimit="10"/>
    <path d="M320.63 77.498L316.993 79.5977" stroke="#90D3F9" stroke-width="1.42788" stroke-miterlimit="10"/>
    <path d="M310.131 83.5605L306.494 85.6603" stroke="#90D3F9" stroke-width="1.42788" stroke-miterlimit="10"/>
    <path d="M177.718 36.3984V40.5978" stroke="#90D3F9" stroke-width="1.42788" stroke-miterlimit="10"/>
    <path d="M177.718 48.5215V52.7209" stroke="#90D3F9" stroke-width="1.42788" stroke-miterlimit="10"/>
    <path d="M185.879 44.5586H181.68" stroke="#90D3F9" stroke-width="1.42788" stroke-miterlimit="10"/>
    <path d="M173.756 44.5586H169.557" stroke="#90D3F9" stroke-width="1.42788" stroke-miterlimit="10"/>
    <path d="M181.799 37.4922L179.699 41.129" stroke="#90D3F9" stroke-width="1.42788" stroke-miterlimit="10"/>
    <path d="M175.737 47.9902L173.638 51.6271" stroke="#90D3F9" stroke-width="1.42788" stroke-miterlimit="10"/>
    <path d="M184.786 48.6407L181.149 46.541" stroke="#90D3F9" stroke-width="1.42788" stroke-miterlimit="10"/>
    <path d="M174.287 42.5782L170.65 40.4785" stroke="#90D3F9" stroke-width="1.42788" stroke-miterlimit="10"/>
    <path d="M173.638 37.4922L175.737 41.129" stroke="#90D3F9" stroke-width="1.42788" stroke-miterlimit="10"/>
    <path d="M179.699 47.9902L181.799 51.6271" stroke="#90D3F9" stroke-width="1.42788" stroke-miterlimit="10"/>
    <path d="M184.786 40.4785L181.149 42.5782" stroke="#90D3F9" stroke-width="1.42788" stroke-miterlimit="10"/>
    <path d="M174.287 46.541L170.65 48.6407" stroke="#90D3F9" stroke-width="1.42788" stroke-miterlimit="10"/>
    <path d="M309.086 246.066V250.266" stroke="#90D3F9" stroke-width="1.42788" stroke-miterlimit="10"/>
    <path d="M309.086 258.189V262.389" stroke="#90D3F9" stroke-width="1.42788" stroke-miterlimit="10"/>
    <path d="M317.247 254.229H313.046" stroke="#90D3F9" stroke-width="1.42788" stroke-miterlimit="10"/>
    <path d="M305.124 254.229H300.924" stroke="#90D3F9" stroke-width="1.42788" stroke-miterlimit="10"/>
    <path d="M313.166 247.16L311.066 250.797" stroke="#90D3F9" stroke-width="1.42788" stroke-miterlimit="10"/>
    <path d="M307.104 257.658L305.005 261.296" stroke="#90D3F9" stroke-width="1.42788" stroke-miterlimit="10"/>
    <path d="M316.153 258.309L312.516 256.209" stroke="#90D3F9" stroke-width="1.42788" stroke-miterlimit="10"/>
    <path d="M305.654 252.246L302.017 250.146" stroke="#90D3F9" stroke-width="1.42788" stroke-miterlimit="10"/>
    <path d="M305.005 247.16L307.104 250.797" stroke="#90D3F9" stroke-width="1.42788" stroke-miterlimit="10"/>
    <path d="M311.066 257.658L313.166 261.296" stroke="#90D3F9" stroke-width="1.42788" stroke-miterlimit="10"/>
    <path d="M316.153 250.146L312.516 252.246" stroke="#90D3F9" stroke-width="1.42788" stroke-miterlimit="10"/>
    <path d="M305.654 256.209L302.017 258.309" stroke="#90D3F9" stroke-width="1.42788" stroke-miterlimit="10"/>
</svg>
