<?xml version="1.0" standalone="no"?>
<!DOCTYPE svg PUBLIC "-//W3C//DTD SVG 20010904//EN"
 "http://www.w3.org/TR/2001/REC-SVG-20010904/DTD/svg10.dtd">
<svg version="1.0" xmlns="http://www.w3.org/2000/svg"
 width="513.000000pt" height="513.000000pt" viewBox="0 0 513.000000 513.000000"
 preserveAspectRatio="xMidYMid meet">
<metadata>
Created by potrace 1.14, written by Peter Selinger 2001-2017
</metadata>
<g transform="translate(0.000000,513.000000) scale(0.100000,-0.100000)"
fill="#000000" stroke="none">
<path d="M2460 4282 c-164 -12 -322 -67 -465 -161 -71 -47 -265 -232 -265
-253 0 -7 5 -5 13 4 22 29 148 108 242 153 287 138 605 145 843 19 245 -130
385 -371 420 -729 8 -80 8 -223 -1 -275 -21 -122 -79 -319 -126 -423 -26 -58
-31 -63 -73 -74 -103 -28 -196 -139 -223 -267 -12 -61 -12 -85 0 -157 3 -20
-11 -45 -67 -115 -194 -243 -440 -462 -678 -602 -101 -59 -267 -141 -299 -147
-11 -2 -28 -8 -38 -13 -28 -15 -201 -61 -263 -69 -30 -4 -109 -8 -175 -7 -382
2 -667 205 -854 607 -93 199 -121 319 -116 502 12 467 354 882 877 1066 51 18
96 35 101 39 9 8 -174 5 -233 -4 -140 -22 -265 -69 -429 -162 -44 -25 -165
-120 -216 -170 -364 -354 -482 -873 -314 -1385 68 -205 263 -459 475 -616 104
-76 235 -144 371 -191 l108 -37 305 -2 305 -2 110 28 c153 40 210 61 366 134
273 128 567 356 769 596 25 30 50 59 55 65 21 22 103 132 143 193 34 50 50 64
80 73 45 12 120 63 154 105 91 113 125 268 84 386 -15 44 -15 49 4 105 23 65
85 316 94 379 3 22 8 56 11 75 27 186 31 381 9 485 -43 208 -132 378 -271 520
-85 86 -100 99 -188 156 -69 45 -92 57 -189 98 -124 54 -315 84 -456 73z m549
-1899 c-23 -43 -60 -105 -81 -138 l-39 -60 5 53 c7 80 46 150 110 200 48 37
50 25 5 -55z m379 -158 c-14 -95 -72 -190 -137 -228 l-31 -18 28 48 c37 64
132 267 133 284 1 8 4 3 8 -11 4 -14 4 -47 -1 -75z"/>
<path d="M3948 3385 c-2 -2 -29 -6 -61 -9 -104 -12 -108 -19 -25 -51 94 -36
282 -134 361 -187 246 -166 407 -348 500 -568 216 -512 -5 -1074 -578 -1472
-68 -47 -216 -134 -243 -142 -12 -4 -20 -11 -17 -16 3 -5 11 -7 18 -5 7 2 48
6 92 9 86 7 99 8 220 32 438 87 775 381 895 784 20 68 21 88 18 398 l-3 327
-29 80 c-183 511 -551 808 -1018 820 -70 1 -128 2 -130 0z"/>
<path d="M1946 3148 c-3 -17 -3 -35 1 -38 5 -4 36 -14 70 -23 134 -36 239
-108 291 -200 22 -38 45 -113 57 -179 5 -36 7 -37 43 -35 20 1 36 7 36 12 -1
6 -5 34 -8 64 -9 71 -57 185 -103 242 -68 83 -145 134 -257 168 -99 30 -122
29 -130 -11z"/>
<path d="M1946 3012 c-3 -3 -6 -15 -6 -27 0 -18 9 -25 46 -34 136 -34 228
-130 236 -245 3 -32 6 -36 32 -36 28 0 28 0 21 48 -15 105 -85 206 -176 253
-48 24 -144 50 -153 41z"/>
<path d="M1315 2842 c-27 -2 -53 -6 -57 -10 -3 -4 -9 -37 -13 -74 -3 -37 -7
-75 -9 -85 -2 -10 -7 -47 -11 -83 -4 -36 -9 -72 -10 -80 -2 -8 -6 -44 -10 -80
-3 -36 -8 -72 -10 -80 -2 -8 -6 -42 -10 -75 -3 -33 -8 -71 -10 -85 -2 -14 -6
-46 -9 -72 -4 -26 -11 -80 -16 -120 -5 -40 -10 -79 -10 -85 0 -9 17 -13 54
-13 l54 0 12 83 c11 71 17 121 19 150 1 8 24 19 121 57 l49 19 55 -141 c31
-77 56 -147 56 -154 0 -10 15 -14 48 -15 47 -1 75 1 80 5 1 2 -34 82 -78 178
l-80 175 68 70 c69 70 130 161 134 203 3 20 -1 23 -43 25 l-47 2 -61 -83 c-73
-98 -155 -176 -222 -210 -69 -35 -72 -33 -64 33 3 32 8 60 10 63 1 3 6 30 9
60 6 53 11 87 21 140 3 14 7 47 11 73 3 27 12 84 19 128 7 44 10 81 6 82 -3 1
-28 1 -56 -1z"/>
<path d="M1993 2820 c-42 -17 -55 -72 -27 -115 21 -32 82 -35 109 -5 50 55
-13 147 -82 120z"/>
<path d="M620 2597 c-106 -24 -150 -70 -150 -159 0 -87 52 -134 236 -209 121
-49 164 -83 164 -126 0 -15 -4 -33 -8 -39 -24 -35 -129 -44 -329 -30 -57 4
-103 4 -104 -1 0 -4 -2 -25 -5 -45 -4 -31 -1 -38 13 -39 10 0 25 -2 33 -3 34
-7 179 -17 245 -17 185 0 285 61 285 173 0 89 -69 146 -281 233 -82 33 -119
63 -121 95 -3 85 20 93 254 88 l178 -3 1 25 c1 27 -1 53 -6 58 -10 10 -357 9
-405 -1z"/>
<path d="M2400 2552 c-142 -47 -219 -175 -225 -370 -5 -199 72 -284 260 -288
104 -3 212 15 225 36 13 21 13 63 -1 55 -20 -13 -234 -15 -272 -3 -49 15 -97
69 -99 111 0 18 -2 39 -2 47 -4 39 27 180 49 225 42 86 131 126 255 117 134
-11 133 -11 137 25 4 29 1 33 -24 39 -15 3 -35 8 -43 11 -37 13 -217 10 -260
-5z"/>
<path d="M3970 2561 c-45 -15 -126 -59 -173 -95 -26 -20 -49 -36 -51 -36 -4 0
2 73 8 103 4 14 -3 17 -45 17 -48 0 -49 0 -50 -32 0 -18 -2 -41 -4 -50 -2 -9
-6 -34 -9 -55 -3 -21 -7 -54 -10 -73 -3 -19 -13 -89 -21 -155 -9 -66 -19 -140
-23 -165 -3 -25 -6 -58 -6 -74 -1 -29 1 -30 47 -31 26 0 47 2 48 5 0 3 2 14 4
25 3 11 7 38 9 60 17 137 46 338 48 339 2 1 26 19 54 39 123 88 213 117 246
80 20 -23 28 -80 18 -135 -4 -24 -11 -68 -14 -98 -10 -89 -17 -143 -22 -170
-2 -14 -7 -52 -10 -85 -4 -33 -8 -63 -11 -67 -2 -5 21 -8 51 -8 31 0 56 3 56
8 0 4 5 36 10 72 5 36 11 85 14 110 3 25 8 63 11 85 28 184 19 166 114 229 95
63 129 75 191 67 5 0 17 -13 26 -27 17 -26 19 -51 9 -134 -3 -25 -8 -67 -11
-95 -3 -27 -7 -61 -9 -75 -11 -61 -26 -221 -21 -228 2 -4 27 -9 55 -10 l51 -2
1 32 c1 35 2 50 13 141 3 31 9 83 12 115 4 31 8 71 10 87 16 136 16 172 1 207
-44 104 -175 103 -334 -2 l-73 -48 -19 42 c-27 61 -59 86 -117 91 -27 2 -60 1
-74 -4z"/>
<path d="M1934 2552 c-5 -4 -10 -14 -11 -22 -9 -75 -24 -189 -27 -207 -3 -12
-7 -49 -11 -82 -3 -33 -7 -68 -9 -78 -2 -10 -7 -40 -10 -68 -4 -27 -11 -79
-16 -115 -5 -36 -10 -68 -10 -72 0 -5 27 -8 60 -8 55 0 60 2 61 23 0 12 2 31
4 42 3 17 14 97 30 235 3 19 12 91 20 160 9 69 17 141 18 160 2 35 2 35 -44
37 -25 1 -49 -2 -55 -5z"/>
</g>
</svg>
