<svg
        width="89"
        height="60"
        viewBox="0 0 89 60"
        fill="none"
        xmlns="http://www.w3.org/2000/svg"
>
    <path
            fillRule="evenodd"
            clipRule="evenodd"
            d="M63.9648 16.0408C89.7492 10.2014 98.6666 55.5399 65.3908 56.356C86.1046 46.1529 86.85 24.3425 63.9648 16.0408Z"
            fill="#BAE1F8"
    />
    <path
            fillRule="evenodd"
            clipRule="evenodd"
            d="M29.6187 7.77548C38.8154 -0.308392 56.0926 0.856814 55.1795 20.6565C51.5147 44.4738 18.8593 66.2777 8.28444 41.9907C3.18577 31.5919 9.35794 19.5829 23.1781 15.6248C10.23 14.3332 -3.38916 28.8579 3.65533 46.016C18.2807 72.9187 58.3997 54.4021 60.6137 18.845C61.4523 2.47513 40.1851 -6.64889 29.6187 7.77548Z"
            fill="#BAE1F8"
    />
    <path
            fillRule="evenodd"
            clipRule="evenodd"
            d="M33.4784 18.9492C37.677 19.1952 41.5392 22.1865 41.6891 27.4314C41.2594 27.4314 40.8296 27.4314 40.3998 27.4314C40.2189 23.4052 37.8665 21.0075 33.3427 20.2385C33.3879 19.8087 33.4331 19.379 33.4784 18.9492Z"
            fill="#28166F"
    />
    <path
            fillRule="evenodd"
            clipRule="evenodd"
            d="M33.3671 21.7314C36.2345 21.8994 38.8721 23.9423 38.9744 27.5242C38.6809 27.5242 38.3874 27.5242 38.094 27.5242C37.9704 24.7745 36.3639 23.1371 33.2744 22.6119C33.3053 22.3185 33.3362 22.025 33.3671 21.7314Z"
            fill="#28166F"
    />
    <path
            fillRule="evenodd"
            clipRule="evenodd"
            d="M21.9235 24.6756C21.2671 29.8794 20.6106 35.0832 19.9541 40.287C20.5626 40.303 21.171 40.319 21.7794 40.3351C21.9716 38.974 22.1637 37.6131 22.3559 36.2521C23.2845 35.8838 24.2132 35.5155 25.1419 35.1473C25.8144 36.8766 26.4869 38.6058 27.1594 40.3351C27.8478 40.3351 28.5363 40.3351 29.2249 40.3351C28.2962 38.3176 27.3675 36.3001 26.4388 34.2827C27.8589 33.1041 29.206 31.7792 30.0415 29.4311C29.449 29.4151 28.8566 29.3991 28.2642 29.3831C26.2367 32.5654 24.2856 34.2994 22.4039 34.715C22.9162 31.3365 23.4286 27.958 23.941 24.5796C23.2685 24.6116 22.596 24.6436 21.9235 24.6756Z"
            fill="#007CC3"
    />
    <path
            fillRule="evenodd"
            clipRule="evenodd"
            d="M33.1063 29.3806H34.963L33.5977 40.3026H31.6318L33.1063 29.3806Z"
            fill="#007CC3"
    />
    <path
            d="M34.6623 27.3599C35.3409 27.3599 35.891 26.8099 35.891 26.1313C35.891 25.4527 35.3409 24.9026 34.6623 24.9026C33.9837 24.9026 33.4337 25.4527 33.4337 26.1313C33.4337 26.8099 33.9837 27.3599 34.6623 27.3599Z"
            fill="#007CC3"
    />
    <path
            fillRule="evenodd"
            clipRule="evenodd"
            d="M46.4308 29.6537C46.3944 30.0724 46.358 30.4911 46.3216 30.9097C42.0256 29.8904 39.6956 31.0554 39.3315 34.4048C38.0805 39.4468 40.9944 39.4364 45.4478 38.8828C45.4114 39.2468 45.375 39.6109 45.3386 39.975C39.9225 41.2682 36.4637 40.2854 37.311 34.2955C38.03 30.0859 40.7604 28.1838 46.4308 29.6537Z"
            fill="#DEDEDD"
    />
    <path
            fillRule="evenodd"
            clipRule="evenodd"
            d="M53.8029 29.2715C62.2995 29.3988 58.4677 42.2868 51.7279 40.3027C45.7572 39.2469 46.9951 29.1258 53.8029 29.2715ZM53.7062 30.5275C60.3365 30.6269 57.3464 40.6838 52.0871 39.1356C47.4278 38.3117 48.3939 30.4138 53.7062 30.5275Z"
            fill="#DEDEDD"
    />
    <path
            fillRule="evenodd"
            clipRule="evenodd"
            d="M60.5742 40.0295C61.0657 36.4981 61.5572 32.9667 62.0487 29.4352C62.5402 29.4534 63.0317 29.4716 63.5231 29.4898C63.4503 30.1816 63.3775 30.8733 63.3047 31.565C66.8 28.761 69.6034 27.96 70.6224 31.565C73.7172 28.7064 77.5763 28.324 77.6125 31.7835C77.303 34.6232 76.9936 37.4629 76.6841 40.3026C76.0834 40.2662 75.4827 40.2298 74.882 40.1934C75.2096 37.4447 75.5373 34.696 75.865 31.9473C75.3432 29.6277 73.1128 30.8393 70.404 33.0395C70.0763 35.4605 69.7487 37.8816 69.421 40.3026C68.8385 40.2844 68.256 40.2662 67.6735 40.248C68.0012 37.7359 68.3288 35.2239 68.6565 32.7118C68.9659 29.8176 67.1638 29.9086 63.2501 32.9849C62.9406 35.3331 62.6312 37.6813 62.3217 40.0295C61.7392 40.0295 61.1567 40.0295 60.5742 40.0295Z"
            fill="#DEDEDD"
    />
    <path
            fillRule="evenodd"
            clipRule="evenodd"
            d="M18.1994 28.713C18.1994 29.1583 18.1994 29.6036 18.1994 30.0488C14.6155 30.1189 10.6046 29.2955 10.9267 31.2362C10.3916 33.3855 18.3868 33.4548 17.6057 37.4403C17.1173 40.1821 12.9494 40.0988 8.01758 39.4292C8.05717 38.9344 8.09677 38.4397 8.13632 37.9449C11.9924 38.2125 15.6389 38.645 15.4981 36.995C15.905 34.6808 8.03613 34.7376 8.84876 30.9097C9.00459 28.4507 12.077 28.1836 18.1994 28.713Z"
            fill="#007CC3"
    />
</svg>
