<svg width="208" height="75" viewBox="0 0 208 75" fill="none" xmlns="http://www.w3.org/2000/svg">
<mask id="path-1-inside-1_303_9655" fill="white">
<path fill-rule="evenodd" clip-rule="evenodd" d="M180.2 0C195.554 0 208 12.4463 208 27.7995V34.7494C208 50.1027 195.554 62.5489 180.2 62.5489H179.034L180.945 74.7112L160.654 62.5489H27.7995C12.4463 62.5489 0 50.1027 0 34.7494V27.7995C0 12.4463 12.4463 0 27.7995 0H180.2Z"/>
</mask>
<path fill-rule="evenodd" clip-rule="evenodd" d="M180.2 0C195.554 0 208 12.4463 208 27.7995V34.7494C208 50.1027 195.554 62.5489 180.2 62.5489H179.034L180.945 74.7112L160.654 62.5489H27.7995C12.4463 62.5489 0 50.1027 0 34.7494V27.7995C0 12.4463 12.4463 0 27.7995 0H180.2Z" fill="#28166F"/>
<path d="M179.034 62.5489L176.091 63.0113L175.55 59.5704H179.034V62.5489ZM180.945 74.7112L183.887 74.2488L184.876 80.5401L179.414 77.266L180.945 74.7112ZM160.654 62.5489V59.5704H161.478L162.185 59.9942L160.654 62.5489ZM205.021 27.7995C205.021 14.0913 193.909 2.97852 180.2 2.97852V-2.97852C197.199 -2.97852 210.979 10.8013 210.979 27.7995H205.021ZM205.021 34.7494V27.7995H210.979V34.7494H205.021ZM180.2 59.5704C193.909 59.5704 205.021 48.4577 205.021 34.7494H210.979C210.979 51.7477 197.199 65.5274 180.2 65.5274V59.5704ZM179.034 59.5704H180.2V65.5274H179.034V59.5704ZM178.003 75.1736L176.091 63.0113L181.976 62.0865L183.887 74.2488L178.003 75.1736ZM162.185 59.9942L182.476 72.1565L179.414 77.266L159.123 65.1037L162.185 59.9942ZM27.7995 59.5704H160.654V65.5274H27.7995V59.5704ZM2.97852 34.7494C2.97852 48.4577 14.0913 59.5704 27.7995 59.5704V65.5274C10.8013 65.5274 -2.97852 51.7477 -2.97852 34.7494H2.97852ZM2.97852 27.7995V34.7494H-2.97852V27.7995H2.97852ZM27.7995 2.97852C14.0913 2.97852 2.97852 14.0913 2.97852 27.7995H-2.97852C-2.97852 10.8013 10.8013 -2.97852 27.7995 -2.97852V2.97852ZM180.2 2.97852H27.7995V-2.97852H180.2V2.97852Z" fill="#FF0000" mask="url(#path-1-inside-1_303_9655)"/>
<path d="M35.695 37.3604H33.82L28.36 30.4154V37.3604H26.185V26.7104H28.06L33.52 33.6554V26.7104H35.695V37.3604ZM41.1441 37.5254C39.9941 37.5254 39.0491 37.1554 38.3091 36.4154C37.5791 35.6754 37.2141 34.7354 37.2141 33.5954C37.2141 32.4754 37.5841 31.5454 38.3241 30.8054C39.0741 30.0654 40.0191 29.6954 41.1591 29.6954C42.3091 29.6954 43.2641 30.0904 44.0241 30.8804C44.7841 31.6604 45.1341 32.7304 45.0741 34.0904H39.2241C39.2641 34.5604 39.4591 34.9554 39.8091 35.2754C40.1591 35.5854 40.6391 35.7404 41.2491 35.7404C41.6191 35.7404 41.9441 35.6704 42.2241 35.5304C42.5141 35.3804 42.7191 35.1754 42.8391 34.9154H44.9841C44.7641 35.6854 44.3041 36.3154 43.6041 36.8054C42.9041 37.2854 42.0841 37.5254 41.1441 37.5254ZM41.0991 31.3604C40.6291 31.3604 40.2341 31.4854 39.9141 31.7354C39.6041 31.9754 39.3991 32.3104 39.2991 32.7404H42.8241C42.7141 32.2704 42.4941 31.9254 42.1641 31.7054C41.8441 31.4754 41.4891 31.3604 41.0991 31.3604ZM50.0211 37.5254C48.8711 37.5254 47.9261 37.1554 47.1861 36.4154C46.4561 35.6754 46.0911 34.7354 46.0911 33.5954C46.0911 32.4754 46.4611 31.5454 47.2011 30.8054C47.9511 30.0654 48.8961 29.6954 50.0361 29.6954C51.1861 29.6954 52.1411 30.0904 52.9011 30.8804C53.6611 31.6604 54.0111 32.7304 53.9511 34.0904H48.1011C48.1411 34.5604 48.3361 34.9554 48.6861 35.2754C49.0361 35.5854 49.5161 35.7404 50.1261 35.7404C50.4961 35.7404 50.8211 35.6704 51.1011 35.5304C51.3911 35.3804 51.5961 35.1754 51.7161 34.9154H53.8611C53.6411 35.6854 53.1811 36.3154 52.4811 36.8054C51.7811 37.2854 50.9611 37.5254 50.0211 37.5254ZM49.9761 31.3604C49.5061 31.3604 49.1111 31.4854 48.7911 31.7354C48.4811 31.9754 48.2761 32.3104 48.1761 32.7404H51.7011C51.5911 32.2704 51.3711 31.9254 51.0411 31.7054C50.7211 31.4754 50.3661 31.3604 49.9761 31.3604ZM58.493 37.5254C57.503 37.5254 56.668 37.1404 55.988 36.3704C55.308 35.6004 54.968 34.6804 54.968 33.6104C54.968 32.5404 55.308 31.6204 55.988 30.8504C56.668 30.0804 57.503 29.6954 58.493 29.6954C58.973 29.6954 59.403 29.7954 59.783 29.9954C60.163 30.1954 60.453 30.4304 60.653 30.7004V26.1104H62.708V37.3604H60.653V36.5204C60.453 36.7904 60.163 37.0254 59.783 37.2254C59.403 37.4254 58.973 37.5254 58.493 37.5254ZM57.548 35.0804C57.898 35.4604 58.358 35.6504 58.928 35.6504C59.498 35.6504 59.953 35.4604 60.293 35.0804C60.643 34.7004 60.818 34.2104 60.818 33.6104C60.818 33.0104 60.643 32.5204 60.293 32.1404C59.953 31.7604 59.498 31.5704 58.928 31.5704C58.358 31.5704 57.898 31.7604 57.548 32.1404C57.208 32.5204 57.038 33.0104 57.038 33.6104C57.038 34.2104 57.208 34.7004 57.548 35.0804ZM68.3139 37.3604V26.7104H70.4889V30.9554H75.1089V26.7104H77.2839V37.3604H75.1089V33.0254H70.4889V37.3604H68.3139ZM82.731 37.5254C81.581 37.5254 80.636 37.1554 79.896 36.4154C79.166 35.6754 78.801 34.7354 78.801 33.5954C78.801 32.4754 79.171 31.5454 79.911 30.8054C80.661 30.0654 81.606 29.6954 82.746 29.6954C83.896 29.6954 84.851 30.0904 85.611 30.8804C86.371 31.6604 86.721 32.7304 86.661 34.0904H80.811C80.851 34.5604 81.046 34.9554 81.396 35.2754C81.746 35.5854 82.226 35.7404 82.836 35.7404C83.206 35.7404 83.531 35.6704 83.811 35.5304C84.101 35.3804 84.306 35.1754 84.426 34.9154H86.571C86.351 35.6854 85.891 36.3154 85.191 36.8054C84.491 37.2854 83.671 37.5254 82.731 37.5254ZM82.686 31.3604C82.216 31.3604 81.821 31.4854 81.501 31.7354C81.191 31.9754 80.986 32.3104 80.886 32.7404H84.411C84.301 32.2704 84.081 31.9254 83.751 31.7054C83.431 31.4754 83.076 31.3604 82.686 31.3604ZM88.158 37.3604V26.1104H90.213V37.3604H88.158ZM94.2413 40.4954H92.1863V29.8604H94.2413V30.7004C94.4313 30.4304 94.7213 30.1954 95.1113 29.9954C95.5013 29.7954 95.9363 29.6954 96.4163 29.6954C97.4063 29.6954 98.2413 30.0804 98.9213 30.8504C99.6013 31.6204 99.9413 32.5404 99.9413 33.6104C99.9413 34.6804 99.6013 35.6004 98.9213 36.3704C98.2413 37.1404 97.4063 37.5254 96.4163 37.5254C95.9363 37.5254 95.5013 37.4254 95.1113 37.2254C94.7213 37.0254 94.4313 36.7904 94.2413 36.5204V40.4954ZM94.5863 35.0804C94.9363 35.4604 95.3963 35.6504 95.9663 35.6504C96.5363 35.6504 96.9913 35.4604 97.3313 35.0804C97.6813 34.7004 97.8563 34.2104 97.8563 33.6104C97.8563 33.0104 97.6813 32.5204 97.3313 32.1404C96.9913 31.7604 96.5363 31.5704 95.9663 31.5704C95.3963 31.5704 94.9363 31.7604 94.5863 32.1404C94.2463 32.5204 94.0763 33.0104 94.0763 33.6104C94.0763 34.2104 94.2463 34.7004 94.5863 35.0804ZM102.666 33.5054V33.2204C102.666 32.4804 103.101 31.8104 103.971 31.2104C104.041 31.1604 104.166 31.0754 104.346 30.9554C104.536 30.8254 104.666 30.7354 104.736 30.6854C104.816 30.6254 104.911 30.5404 105.021 30.4304C105.131 30.3204 105.206 30.2054 105.246 30.0854C105.286 29.9654 105.306 29.8354 105.306 29.6954C105.306 29.3454 105.186 29.0704 104.946 28.8704C104.716 28.6604 104.421 28.5554 104.061 28.5554C103.671 28.5554 103.336 28.6754 103.056 28.9154C102.786 29.1554 102.651 29.4854 102.651 29.9054H100.596C100.596 28.9754 100.931 28.1804 101.601 27.5204C102.271 26.8604 103.091 26.5304 104.061 26.5304C105.021 26.5304 105.811 26.8354 106.431 27.4454C107.051 28.0454 107.361 28.7554 107.361 29.5754C107.361 30.1454 107.256 30.6354 107.046 31.0454C106.836 31.4554 106.491 31.8404 106.011 32.2004C105.931 32.2604 105.826 32.3354 105.696 32.4254C105.576 32.5154 105.481 32.5854 105.411 32.6354C105.351 32.6754 105.276 32.7304 105.186 32.8004C105.096 32.8704 105.026 32.9304 104.976 32.9804C104.936 33.0204 104.891 33.0704 104.841 33.1304C104.801 33.1904 104.771 33.2454 104.751 33.2954C104.731 33.3454 104.721 33.4004 104.721 33.4604V33.5054H102.666ZM103.686 37.4804C103.266 37.4804 102.911 37.3354 102.621 37.0454C102.331 36.7554 102.186 36.4004 102.186 35.9804C102.186 35.5604 102.331 35.2054 102.621 34.9154C102.911 34.6254 103.266 34.4804 103.686 34.4804C104.096 34.4804 104.446 34.6304 104.736 34.9304C105.036 35.2204 105.186 35.5704 105.186 35.9804C105.186 36.3904 105.036 36.7454 104.736 37.0454C104.446 37.3354 104.096 37.4804 103.686 37.4804Z" fill="#F13E3E"/>
<path d="M117.517 37.5404C115.917 37.5404 114.587 37.0104 113.527 35.9504C112.467 34.8904 111.937 33.5854 111.937 32.0354C111.937 30.4854 112.467 29.1804 113.527 28.1204C114.587 27.0604 115.917 26.5304 117.517 26.5304C118.727 26.5304 119.812 26.8854 120.772 27.5954C121.742 28.2954 122.377 29.2104 122.677 30.3404H120.322C120.112 29.8204 119.742 29.4054 119.212 29.0954C118.692 28.7854 118.127 28.6304 117.517 28.6304C116.517 28.6304 115.702 28.9554 115.072 29.6054C114.442 30.2554 114.127 31.0654 114.127 32.0354C114.127 33.0054 114.442 33.8154 115.072 34.4654C115.702 35.1154 116.517 35.4404 117.517 35.4404C118.127 35.4404 118.692 35.2854 119.212 34.9754C119.742 34.6654 120.112 34.2504 120.322 33.7304H122.677C122.377 34.8604 121.742 35.7804 120.772 36.4904C119.812 37.1904 118.727 37.5404 117.517 37.5404ZM124.061 37.3604V26.1104H126.116V37.3604H124.061ZM129.11 28.6304C128.76 28.6304 128.455 28.5054 128.195 28.2554C127.935 27.9954 127.805 27.6854 127.805 27.3254C127.805 26.9654 127.935 26.6604 128.195 26.4104C128.455 26.1504 128.76 26.0204 129.11 26.0204C129.48 26.0204 129.79 26.1504 130.04 26.4104C130.3 26.6604 130.43 26.9654 130.43 27.3254C130.43 27.6854 130.3 27.9954 130.04 28.2554C129.79 28.5054 129.48 28.6304 129.11 28.6304ZM128.09 37.3604V29.8604H130.145V37.3604H128.09ZM135.583 37.5254C134.453 37.5254 133.513 37.1504 132.763 36.4004C132.013 35.6404 131.638 34.7104 131.638 33.6104C131.638 32.5104 132.013 31.5854 132.763 30.8354C133.513 30.0754 134.453 29.6954 135.583 29.6954C136.583 29.6954 137.418 29.9754 138.088 30.5354C138.768 31.0954 139.213 31.8254 139.423 32.7254H137.293C136.963 31.9454 136.393 31.5554 135.583 31.5554C135.033 31.5554 134.583 31.7454 134.233 32.1254C133.883 32.4954 133.708 32.9904 133.708 33.6104C133.708 34.2304 133.883 34.7304 134.233 35.1104C134.583 35.4804 135.033 35.6654 135.583 35.6654C136.393 35.6654 136.963 35.2754 137.293 34.4954H139.423C139.213 35.3954 138.768 36.1254 138.088 36.6854C137.418 37.2454 136.583 37.5254 135.583 37.5254ZM145.934 37.3604L142.874 33.9104V37.3604H140.819V26.1104H142.874V32.6204L145.304 29.8604H147.779L144.809 33.2354L148.469 37.3604H145.934ZM154.344 37.3604H152.289V26.1104H154.344V30.7154C154.804 30.0354 155.519 29.6954 156.489 29.6954C157.389 29.6954 158.094 29.9954 158.604 30.5954C159.124 31.1854 159.384 31.9754 159.384 32.9654V37.3604H157.329V33.3104C157.329 32.7604 157.214 32.3354 156.984 32.0354C156.754 31.7254 156.429 31.5704 156.009 31.5704C155.509 31.5704 155.104 31.7504 154.794 32.1104C154.494 32.4704 154.344 33.0004 154.344 33.7004V37.3604ZM164.718 37.5254C163.568 37.5254 162.623 37.1554 161.883 36.4154C161.153 35.6754 160.788 34.7354 160.788 33.5954C160.788 32.4754 161.158 31.5454 161.898 30.8054C162.648 30.0654 163.593 29.6954 164.733 29.6954C165.883 29.6954 166.838 30.0904 167.598 30.8804C168.358 31.6604 168.708 32.7304 168.648 34.0904H162.798C162.838 34.5604 163.033 34.9554 163.383 35.2754C163.733 35.5854 164.213 35.7404 164.823 35.7404C165.193 35.7404 165.518 35.6704 165.798 35.5304C166.088 35.3804 166.293 35.1754 166.413 34.9154H168.558C168.338 35.6854 167.878 36.3154 167.178 36.8054C166.478 37.2854 165.658 37.5254 164.718 37.5254ZM164.673 31.3604C164.203 31.3604 163.808 31.4854 163.488 31.7354C163.178 31.9754 162.973 32.3104 162.873 32.7404H166.398C166.288 32.2704 166.068 31.9254 165.738 31.7054C165.418 31.4754 165.063 31.3604 164.673 31.3604ZM170.145 37.3604V29.8604H172.2V31.0604C172.33 30.6904 172.565 30.3854 172.905 30.1454C173.255 29.8954 173.64 29.7704 174.06 29.7704C174.32 29.7704 174.55 29.8004 174.75 29.8604V31.9454C174.42 31.8354 174.11 31.7804 173.82 31.7804C173.33 31.7804 172.935 31.9604 172.635 32.3204C172.345 32.6704 172.2 33.1554 172.2 33.7754V37.3604H170.145ZM179.25 37.5254C178.1 37.5254 177.155 37.1554 176.415 36.4154C175.685 35.6754 175.32 34.7354 175.32 33.5954C175.32 32.4754 175.69 31.5454 176.43 30.8054C177.18 30.0654 178.125 29.6954 179.265 29.6954C180.415 29.6954 181.37 30.0904 182.13 30.8804C182.89 31.6604 183.24 32.7304 183.18 34.0904H177.33C177.37 34.5604 177.565 34.9554 177.915 35.2754C178.265 35.5854 178.745 35.7404 179.355 35.7404C179.725 35.7404 180.05 35.6704 180.33 35.5304C180.62 35.3804 180.825 35.1754 180.945 34.9154H183.09C182.87 35.6854 182.41 36.3154 181.71 36.8054C181.01 37.2854 180.19 37.5254 179.25 37.5254ZM179.205 31.3604C178.735 31.3604 178.34 31.4854 178.02 31.7354C177.71 31.9754 177.505 32.3104 177.405 32.7404H180.93C180.82 32.2704 180.6 31.9254 180.27 31.7054C179.95 31.4754 179.595 31.3604 179.205 31.3604Z" fill="white"/>
</svg>
