<svg width="422" height="425" viewBox="0 0 422 425" fill="none" xmlns="http://www.w3.org/2000/svg">
<g opacity="0.5">
<circle cx="0.962418" cy="424.962" r="97.5686" stroke="white" stroke-opacity="0.5" stroke-width="2.78767"/>
<circle cx="1.42697" cy="425.427" r="80.3779" stroke="white" stroke-opacity="0.5" stroke-width="2.78767"/>
<circle cx="1.42701" cy="425.427" r="63.6519" stroke="white" stroke-width="2.78767"/>
<circle cx="-30.0376" cy="261.962" r="97.5686" stroke="white" stroke-opacity="0.5" stroke-width="2.78767"/>
<circle cx="-29.573" cy="262.427" r="80.3779" stroke="white" stroke-opacity="0.5" stroke-width="2.78767"/>
<circle cx="-29.573" cy="262.427" r="63.6519" stroke="white" stroke-width="2.78767"/>
<circle cx="-51.0376" cy="98.9624" r="97.5686" stroke="white" stroke-opacity="0.5" stroke-width="2.78767"/>
<circle cx="-50.573" cy="99.427" r="80.3779" stroke="white" stroke-opacity="0.5" stroke-width="2.78767"/>
<circle cx="-50.573" cy="99.4271" r="63.6519" stroke="white" stroke-width="2.78767"/>
</g>
<g opacity="0.5">
<circle cx="98.9624" cy="98.9624" r="97.5686" transform="matrix(0 -1 -1 0 258.925 558.925)" stroke="white" stroke-opacity="0.5" stroke-width="2.78767"/>
<circle cx="81.7718" cy="81.7718" r="80.3779" transform="matrix(0 -1 -1 0 241.27 541.27)" stroke="white" stroke-opacity="0.5" stroke-width="2.78767"/>
<circle cx="65.0457" cy="65.0457" r="63.6519" transform="matrix(0 -1 -1 0 224.544 524.543)" stroke="white" stroke-width="2.78767"/>
<circle cx="98.9624" cy="98.9624" r="97.5686" transform="matrix(0 -1 -1 0 421.925 567.925)" stroke="white" stroke-opacity="0.5" stroke-width="2.78767"/>
<circle cx="81.7718" cy="81.7718" r="80.3779" transform="matrix(0 -1 -1 0 404.27 550.27)" stroke="white" stroke-opacity="0.5" stroke-width="2.78767"/>
<circle cx="65.0457" cy="65.0457" r="63.6519" transform="matrix(0 -1 -1 0 387.543 533.543)" stroke="white" stroke-width="2.78767"/>
</g>
</svg>
