<svg width="92" height="89" viewBox="0 0 92 89" fill="none" xmlns="http://www.w3.org/2000/svg">
<rect x="1.41644" y="0.690918" width="89.185" height="87.185" rx="7.5" stroke="#28166F"/>
<path fill-rule="evenodd" clip-rule="evenodd" d="M40.897 62.7637C38.4993 60.5923 38.3158 56.8883 40.4872 54.4906C42.6585 52.0928 46.3625 51.9093 48.7603 54.0807C51.158 56.2521 51.3415 59.9561 49.1701 62.3538C46.9988 64.7516 43.2948 64.9351 40.897 62.7637Z" fill="#28166F"/>
<path d="M25.7018 49.0029L30.0433 52.9346C37.6431 44.5425 50.6071 43.9002 58.9992 51.5001L62.9308 47.1586C52.141 37.3874 35.473 38.2131 25.7018 49.0029Z" fill="#28166F"/>
<path d="M17.0188 41.1399L21.3603 45.0715C32.941 32.2836 54.0745 31.2366 66.8625 42.8173L70.7941 38.4758C55.6084 24.7238 30.7709 25.9542 17.0188 41.1399Z" fill="#28166F"/>
</svg>
