<svg width="412" height="614" viewBox="0 0 412 614" fill="none" xmlns="http://www.w3.org/2000/svg">
<g opacity="0.5">
<circle cx="98.9624" cy="98.9624" r="97.5686" transform="matrix(-1 0 0 1 509.925 326)" stroke="white" stroke-opacity="0.5" stroke-width="2.78767"/>
<circle cx="81.7718" cy="81.7718" r="80.3779" transform="matrix(-1 0 0 1 492.27 343.655)" stroke="white" stroke-opacity="0.5" stroke-width="2.78767"/>
<circle cx="65.0457" cy="65.0457" r="63.6519" transform="matrix(-1 0 0 1 475.543 360.381)" stroke="white" stroke-width="2.78767"/>
<circle cx="98.9624" cy="98.9624" r="97.5686" transform="matrix(-1 0 0 1 530.925 163)" stroke="white" stroke-opacity="0.5" stroke-width="2.78767"/>
<circle cx="81.7718" cy="81.7718" r="80.3779" transform="matrix(-1 0 0 1 513.27 180.655)" stroke="white" stroke-opacity="0.5" stroke-width="2.78767"/>
<circle cx="65.0457" cy="65.0457" r="63.6519" transform="matrix(-1 0 0 1 496.543 197.381)" stroke="white" stroke-width="2.78767"/>
<circle cx="98.9624" cy="98.9624" r="97.5686" transform="matrix(-1 0 0 1 551.925 0)" stroke="white" stroke-opacity="0.5" stroke-width="2.78767"/>
<circle cx="81.7718" cy="81.7718" r="80.3779" transform="matrix(-1 0 0 1 534.27 17.6553)" stroke="white" stroke-opacity="0.5" stroke-width="2.78767"/>
<circle cx="65.0457" cy="65.0457" r="63.6519" transform="matrix(-1 0 0 1 517.543 34.3813)" stroke="white" stroke-width="2.78767"/>
</g>
<g opacity="0.5">
<circle cx="261.962" cy="528.962" r="97.5686" transform="rotate(-90 261.962 528.962)" stroke="white" stroke-opacity="0.5" stroke-width="2.78767"/>
<circle cx="262.427" cy="528.498" r="80.3779" transform="rotate(-90 262.427 528.498)" stroke="white" stroke-opacity="0.5" stroke-width="2.78767"/>
<circle cx="262.427" cy="528.498" r="63.6519" transform="rotate(-90 262.427 528.498)" stroke="white" stroke-width="2.78767"/>
<circle cx="98.9624" cy="548.962" r="97.5686" transform="rotate(-90 98.9624 548.962)" stroke="white" stroke-opacity="0.5" stroke-width="2.78767"/>
<circle cx="99.427" cy="548.498" r="80.3779" transform="rotate(-90 99.427 548.498)" stroke="white" stroke-opacity="0.5" stroke-width="2.78767"/>
<circle cx="99.4271" cy="548.498" r="63.6519" transform="rotate(-90 99.4271 548.498)" stroke="white" stroke-width="2.78767"/>
</g>
</svg>
