<svg width="59" height="524" viewBox="0 0 59 524" fill="none" xmlns="http://www.w3.org/2000/svg">
<g opacity="0.5">
<circle cx="98.9624" cy="98.9624" r="97.5686" transform="matrix(-1 0 0 1 59 326)" stroke="white" stroke-opacity="0.5" stroke-width="2.78767"/>
<circle cx="81.7718" cy="81.7718" r="80.3779" transform="matrix(-1 0 0 1 41.3447 343.655)" stroke="white" stroke-opacity="0.5" stroke-width="2.78767"/>
<circle cx="65.0457" cy="65.0457" r="63.6519" transform="matrix(-1 0 0 1 24.6187 360.381)" stroke="white" stroke-width="2.78767"/>
<circle cx="98.9624" cy="98.9624" r="97.5686" transform="matrix(-1 0 0 1 59 163)" stroke="white" stroke-opacity="0.5" stroke-width="2.78767"/>
<circle cx="81.7718" cy="81.7718" r="80.3779" transform="matrix(-1 0 0 1 41.3447 180.655)" stroke="white" stroke-opacity="0.5" stroke-width="2.78767"/>
<circle cx="65.0457" cy="65.0457" r="63.6519" transform="matrix(-1 0 0 1 24.6187 197.381)" stroke="white" stroke-width="2.78767"/>
<circle cx="98.9624" cy="98.9624" r="97.5686" transform="matrix(-1 0 0 1 59 0)" stroke="white" stroke-opacity="0.5" stroke-width="2.78767"/>
<circle cx="81.7718" cy="81.7718" r="80.3779" transform="matrix(-1 0 0 1 41.3447 17.6553)" stroke="white" stroke-opacity="0.5" stroke-width="2.78767"/>
<circle cx="65.0457" cy="65.0457" r="63.6519" transform="matrix(-1 0 0 1 24.6187 34.3813)" stroke="white" stroke-width="2.78767"/>
</g>
</svg>
