<svg width="422" height="425" viewBox="0 0 422 425" fill="none" xmlns="http://www.w3.org/2000/svg">
<g opacity="0.5">
<circle cx="420.962" cy="-0.0376129" r="97.5686" transform="rotate(180 420.962 -0.0376129)" stroke="white" stroke-opacity="0.5" stroke-width="2.78767"/>
<circle cx="420.498" cy="-0.502228" r="80.3779" transform="rotate(180 420.498 -0.502228)" stroke="white" stroke-opacity="0.5" stroke-width="2.78767"/>
<circle cx="420.498" cy="-0.502266" r="63.6519" transform="rotate(180 420.498 -0.502266)" stroke="white" stroke-width="2.78767"/>
<circle cx="451.962" cy="162.962" r="97.5686" transform="rotate(180 451.962 162.962)" stroke="white" stroke-opacity="0.5" stroke-width="2.78767"/>
<circle cx="451.498" cy="162.498" r="80.3779" transform="rotate(180 451.498 162.498)" stroke="white" stroke-opacity="0.5" stroke-width="2.78767"/>
<circle cx="451.498" cy="162.498" r="63.6519" transform="rotate(180 451.498 162.498)" stroke="white" stroke-width="2.78767"/>
<circle cx="472.962" cy="325.962" r="97.5686" transform="rotate(180 472.962 325.962)" stroke="white" stroke-opacity="0.5" stroke-width="2.78767"/>
<circle cx="472.498" cy="325.498" r="80.3779" transform="rotate(180 472.498 325.498)" stroke="white" stroke-opacity="0.5" stroke-width="2.78767"/>
<circle cx="472.498" cy="325.498" r="63.6519" transform="rotate(180 472.498 325.498)" stroke="white" stroke-width="2.78767"/>
</g>
<g opacity="0.5">
<circle cx="98.9624" cy="98.9624" r="97.5686" transform="matrix(0 1 1 0 163 -134)" stroke="white" stroke-opacity="0.5" stroke-width="2.78767"/>
<circle cx="81.7718" cy="81.7718" r="80.3779" transform="matrix(0 1 1 0 180.655 -116.345)" stroke="white" stroke-opacity="0.5" stroke-width="2.78767"/>
<circle cx="65.0457" cy="65.0457" r="63.6519" transform="matrix(0 1 1 0 197.381 -99.6187)" stroke="white" stroke-width="2.78767"/>
<circle cx="98.9624" cy="98.9624" r="97.5686" transform="matrix(0 1 1 0 0 -143)" stroke="white" stroke-opacity="0.5" stroke-width="2.78767"/>
<circle cx="81.7718" cy="81.7718" r="80.3779" transform="matrix(0 1 1 0 17.6553 -125.345)" stroke="white" stroke-opacity="0.5" stroke-width="2.78767"/>
<circle cx="65.0457" cy="65.0457" r="63.6519" transform="matrix(0 1 1 0 34.3813 -108.619)" stroke="white" stroke-width="2.78767"/>
</g>
</svg>
